<?xml version="1.0" encoding="UTF-8"?>
<svg version="1.1" xmlns="http://www.w3.org/2000/svg" width="3508" height="4960">
<path d="M0 0 C6.93087561 0.57950465 13.86618489 1.10234859 20.80078125 1.63513184 C23.29723305 1.8280703 25.79340979 2.02427635 28.28955078 2.22119141 C36.25238412 2.84556746 44.21421776 3.42935506 52.18798828 3.89599609 C52.91955139 3.93916962 53.6511145 3.98234314 54.40484619 4.02682495 C57.82547195 4.22696027 61.24606698 4.41760896 64.66796875 4.59521484 C82.83862735 5.62068526 82.83862735 5.62068526 87.94189453 9.76708984 C91.93933184 14.88880639 91.93933184 14.88880639 91.95361328 17.34521484 C91.84662109 18.08255859 91.73962891 18.81990234 91.62939453 19.57958984 C91.51724609 20.37365234 91.40509766 21.16771484 91.28955078 21.98583984 C91.17482422 22.75927734 91.06009766 23.53271484 90.94189453 24.32958984 C90.81814453 25.56708984 90.69439453 26.80458984 90.56689453 28.07958984 C89.90476798 31.5226479 88.7495063 33.36428478 86.94189453 36.32958984 C86.21706033 37.97061448 85.53186139 39.62960877 84.88330078 41.30224609 C84.50359131 42.27000977 84.12388184 43.23777344 83.73266602 44.23486328 C83.32733643 45.27674805 82.92200684 46.31863281 82.50439453 47.39208984 C77.36839951 60.41465008 71.88271231 73.27087317 66.32324219 86.1171875 C65.08912292 88.98720187 63.87465789 91.86410305 62.67236328 94.74755859 C54.66015029 113.90527285 45.60593699 132.6405434 35.83398438 150.96142578 C20.19483564 180.35017649 6.51216393 210.46051891 -5.71452332 241.42692566 C-11.00157309 254.79309116 -16.49878811 268.07470661 -22.05810547 281.32958984 C-22.52587402 282.44736816 -22.99364258 283.56514648 -23.47558594 284.71679688 C-28.45697069 296.51943838 -33.8776645 308.05579521 -39.64013672 319.49365234 C-40.14294662 320.49251465 -40.64575653 321.49137695 -41.1638031 322.52050781 C-43.6864234 327.52338917 -46.22424549 332.51772688 -48.78637695 337.50048828 C-54.73396649 349.14995133 -59.8000625 360.85816154 -64.24555969 373.15763855 C-65.40826993 376.26558652 -66.72643972 379.29052366 -68.05810547 382.32958984 C-68.67897598 383.96919483 -69.28415758 385.61485996 -69.87060547 387.26708984 C-74.62111573 400.49481398 -79.69469175 413.55273349 -85.12060547 426.51708984 C-85.44247833 427.28773773 -85.7643512 428.05838562 -86.09597778 428.85238647 C-102.94422095 469.14710827 -102.94422095 469.14710827 -112.03466797 485.54443359 C-114.74968964 490.5155418 -117.13177649 495.65087953 -119.55810547 500.76708984 C-123.948836 510.013557 -128.4008659 519.21440264 -133.05810547 528.32958984 C-133.52974121 529.25497559 -134.00137695 530.18036133 -134.48730469 531.13378906 C-143.56308041 548.89787361 -153.00905853 566.28765381 -163.93310547 582.98583984 C-166.1540219 586.48051717 -168.21758811 590.03376143 -170.24560547 593.64208984 C-177.08419364 605.74953039 -177.08419364 605.74953039 -180.05810547 609.32958984 C-180.71810547 609.32958984 -181.37810547 609.32958984 -182.05810547 609.32958984 C-182.39841797 610.63476562 -182.39841797 610.63476562 -182.74560547 611.96630859 C-184.26611391 615.86261147 -186.20037654 618.10575286 -189.05810547 621.14208984 C-190.38841797 622.57488281 -190.38841797 622.57488281 -191.74560547 624.03662109 C-195.62489501 627.88314636 -195.95413425 627.32958984 -202.05810547 627.32958984 C-202.05810547 656.69958984 -202.05810547 686.06958984 -202.05810547 716.32958984 C-199.41810547 716.32958984 -196.77810547 716.32958984 -194.05810547 716.32958984 C-182.28101208 717.45617848 -172.17829125 719.55060786 -163.05810547 727.32958984 C-161.00968332 728.704959 -158.94639426 730.05838279 -156.87060547 731.39208984 C-149.8041826 736.10002631 -144.16618721 740.99534913 -138.67529297 747.46240234 C-136.97188994 749.48207136 -136.97188994 749.48207136 -134.55810547 751.76708984 C-123.59030016 763.00909029 -115.3070268 775.92862572 -112.05810547 791.32958984 C-111.72359375 792.77205078 -111.72359375 792.77205078 -111.38232422 794.24365234 C-107.69667765 812.44623334 -109.7926948 830.67474063 -119.33544922 846.78271484 C-134.19063951 868.74549051 -158.34982279 887.90859662 -184.30810547 894.93896484 C-211.93146321 898.86273725 -239.98778237 891.92758356 -262.46533203 875.58837891 C-278.62935548 863.29609205 -290.09657493 845.57819398 -293.05810547 825.32958984 C-295.01400687 800.41194186 -285.07482984 774.64020187 -269.49560547 755.32958984 C-268.0327496 753.6485888 -266.55392152 751.98133018 -265.05810547 750.32958984 C-264.32849609 749.49298828 -263.59888672 748.65638672 -262.84716797 747.79443359 C-260.62180702 745.26845371 -258.35351339 742.79200714 -256.05810547 740.32958984 C-255.26533203 739.47107422 -254.47255859 738.61255859 -253.65576172 737.72802734 C-243.10404324 726.6928968 -227.87276849 716.66863023 -212.00636292 716.27923584 C-209.03223419 716.30441284 -209.03223419 716.30441284 -206.05810547 716.32958984 C-205.98021138 704.97646022 -205.95082108 693.62433194 -205.98294735 682.27094936 C-205.9963507 676.99866497 -205.99319607 671.72748451 -205.9519043 666.45532227 C-205.91264992 661.36488876 -205.91727763 656.27619452 -205.95202827 651.18574715 C-205.95761701 649.24612632 -205.94752895 647.3063935 -205.92133904 645.36694145 C-205.36300154 634.94644743 -205.36300154 634.94644743 -209.05895996 625.64874268 C-211.31924467 623.90461321 -213.53972388 622.65163027 -216.05810547 621.32958984 C-229.43472749 602.73753396 -234.0988548 574.20367876 -239.58105469 552.40185547 C-244.63844963 532.31139028 -251.38907731 512.92426166 -258.41668701 493.45658875 C-262.90778657 481.00100332 -267.29610099 468.50963259 -271.68310547 456.01708984 C-272.49812705 453.69870143 -273.31323107 451.380342 -274.12841797 449.06201172 C-276.08149513 443.50677988 -278.0318817 437.95060771 -279.9815979 432.39419556 C-280.99925891 429.49711444 -282.01980254 426.60106669 -283.04125977 423.70532227 C-286.36659528 414.26565309 -289.5859834 404.80514456 -292.62060547 395.26708984 C-293.47729921 392.59216788 -294.33619388 389.9179532 -295.19482422 387.24365234 C-295.53281036 386.18973045 -295.53281036 386.18973045 -295.87762451 385.11451721 C-298.57641025 376.70320772 -301.30360281 368.30114469 -304.03598022 359.9006958 C-304.63555311 358.05704537 -305.23469245 356.21325388 -305.83340454 354.36932373 C-309.14077404 344.18517334 -312.4672478 334.00943157 -315.94302368 323.88128662 C-316.73916039 321.55410691 -317.52523772 319.22377228 -318.30810547 316.89208984 C-318.51175468 316.28626886 -318.7154039 315.68044788 -318.9252243 315.05626869 C-322.52881402 304.30069014 -325.83002163 293.49619345 -328.83935547 282.56005859 C-329.04976219 281.79971062 -329.26016891 281.03936264 -329.4769516 280.25597382 C-334.22873226 263.05776801 -338.5232678 245.75255955 -342.73913574 228.41656494 C-343.69586515 224.48691333 -344.65837391 220.55867838 -345.62060547 216.63037109 C-346.74231319 212.05012864 -347.86371881 207.46981572 -348.98217773 202.88877869 C-351.33847135 193.24096491 -353.72325079 183.60072901 -356.1506958 173.97052002 C-357.47181406 168.7207069 -358.74833132 163.46256314 -359.98318481 158.1917572 C-361.87201462 150.22581627 -364.27368653 142.94706922 -367.46044922 135.39990234 C-371.02691468 126.64163484 -373.40244959 117.39352117 -376.05810547 108.32958984 C-376.67767351 106.23447162 -377.29746596 104.13941974 -377.91748047 102.04443359 C-380.43541826 93.50014229 -382.92595799 84.96307908 -385.12060547 76.32958984 C-386.44440482 71.22188334 -388.12594779 66.41316308 -390.05810547 61.51708984 C-394.98401883 48.87164602 -399.68242469 33.00481074 -398.05810547 19.32958984 C-395.36235892 14.84538036 -392.00347246 12.00748222 -387.05810547 10.32958984 C-383.69833616 9.9443142 -380.36158622 9.70415293 -376.98388672 9.54052734 C-373.99623099 9.44629267 -373.99623099 9.44629267 -371.05810547 8.32958984 C-369.31291863 8.31377298 -367.56678146 8.36293103 -365.82373047 8.45068359 C-364.26114502 8.52343506 -364.26114502 8.52343506 -362.66699219 8.59765625 C-361.55855957 8.65356934 -360.45012695 8.70948242 -359.30810547 8.76708984 C-347.66866359 9.28855538 -336.13351418 9.75966037 -324.49951172 8.85302734 C-314.38219691 8.15541014 -304.2580365 8.01311156 -294.12060547 7.82958984 C-290.31973477 7.76065296 -286.51899332 7.68702493 -282.71826172 7.61083984 C-281.46904686 7.59047668 -281.46904686 7.59047668 -280.19459534 7.56970215 C-275.00925984 7.46542316 -269.8516036 7.19954279 -264.67651367 6.85473633 C-255.89285765 6.27394398 -247.10648403 5.98982197 -238.30829239 5.72940254 C-235.41814945 5.64346053 -232.52814765 5.55366362 -229.63815308 5.46287537 C-221.43227355 5.20552362 -213.2262583 4.95291361 -205.02001953 4.70727539 C-183.79853429 4.06988688 -162.6583335 3.36853787 -141.50170898 1.52542114 C-135.8417539 1.07183023 -130.17080688 0.91279007 -124.49560547 0.76708984 C-116.06729647 0.57152522 -116.06729647 0.57152522 -107.67529297 -0.16259766 C-101.38975629 -0.92878205 -95.06997435 -1.05067858 -88.74560547 -1.23291016 C-88.0476889 -1.25342438 -87.34977234 -1.2739386 -86.63070679 -1.29507446 C-57.73403219 -2.11780595 -28.82582147 -2.42172321 0 0 Z " fill="#FF0E00" transform="translate(2136.05810546875,1699.67041015625)"/>
<path d="M0 0 C6.93087561 0.57950465 13.86618489 1.10234859 20.80078125 1.63513184 C23.29723305 1.8280703 25.79340979 2.02427635 28.28955078 2.22119141 C36.25238412 2.84556746 44.21421776 3.42935506 52.18798828 3.89599609 C52.91955139 3.93916962 53.6511145 3.98234314 54.40484619 4.02682495 C57.82547195 4.22696027 61.24606698 4.41760896 64.66796875 4.59521484 C82.83862735 5.62068526 82.83862735 5.62068526 87.94189453 9.76708984 C91.93933184 14.88880639 91.93933184 14.88880639 91.95361328 17.34521484 C91.84662109 18.08255859 91.73962891 18.81990234 91.62939453 19.57958984 C91.51724609 20.37365234 91.40509766 21.16771484 91.28955078 21.98583984 C91.17482422 22.75927734 91.06009766 23.53271484 90.94189453 24.32958984 C90.81814453 25.56708984 90.69439453 26.80458984 90.56689453 28.07958984 C89.90476798 31.5226479 88.7495063 33.36428478 86.94189453 36.32958984 C86.21706033 37.97061448 85.53186139 39.62960877 84.88330078 41.30224609 C84.50359131 42.27000977 84.12388184 43.23777344 83.73266602 44.23486328 C83.32733643 45.27674805 82.92200684 46.31863281 82.50439453 47.39208984 C77.36839951 60.41465008 71.88271231 73.27087317 66.32324219 86.1171875 C65.08912292 88.98720187 63.87465789 91.86410305 62.67236328 94.74755859 C54.66015029 113.90527285 45.60593699 132.6405434 35.83398438 150.96142578 C20.19483564 180.35017649 6.51216393 210.46051891 -5.71452332 241.42692566 C-11.00157309 254.79309116 -16.49878811 268.07470661 -22.05810547 281.32958984 C-22.52587402 282.44736816 -22.99364258 283.56514648 -23.47558594 284.71679688 C-28.45697069 296.51943838 -33.8776645 308.05579521 -39.64013672 319.49365234 C-40.14294662 320.49251465 -40.64575653 321.49137695 -41.1638031 322.52050781 C-43.6864234 327.52338917 -46.22424549 332.51772688 -48.78637695 337.50048828 C-54.73396649 349.14995133 -59.8000625 360.85816154 -64.24555969 373.15763855 C-65.40826993 376.26558652 -66.72643972 379.29052366 -68.05810547 382.32958984 C-68.67897598 383.96919483 -69.28415758 385.61485996 -69.87060547 387.26708984 C-74.62111573 400.49481398 -79.69469175 413.55273349 -85.12060547 426.51708984 C-85.44247833 427.28773773 -85.7643512 428.05838562 -86.09597778 428.85238647 C-102.94422095 469.14710827 -102.94422095 469.14710827 -112.03466797 485.54443359 C-114.74968964 490.5155418 -117.13177649 495.65087953 -119.55810547 500.76708984 C-123.948836 510.013557 -128.4008659 519.21440264 -133.05810547 528.32958984 C-133.52974121 529.25497559 -134.00137695 530.18036133 -134.48730469 531.13378906 C-143.56308041 548.89787361 -153.00905853 566.28765381 -163.93310547 582.98583984 C-166.1540219 586.48051717 -168.21758811 590.03376143 -170.24560547 593.64208984 C-177.08419364 605.74953039 -177.08419364 605.74953039 -180.05810547 609.32958984 C-180.71810547 609.32958984 -181.37810547 609.32958984 -182.05810547 609.32958984 C-182.29142578 610.19970703 -182.52474609 611.06982422 -182.76513672 611.96630859 C-184.23012555 615.77704994 -186.03187405 618.10420674 -188.74560547 621.14208984 C-189.57447266 622.09728516 -190.40333984 623.05248047 -191.25732422 624.03662109 C-194.60792079 626.77971759 -196.8287949 626.87588379 -201.05810547 627.32958984 C-201.05230469 628.35858398 -201.04650391 629.38757812 -201.04052734 630.44775391 C-200.97935565 647.19703349 -201.26508773 663.94197997 -201.52166748 680.68865967 C-201.58308555 684.71869298 -201.64277916 688.74875185 -201.70263672 692.77880859 C-201.81948005 700.62909435 -201.93817206 708.47935062 -202.05810547 716.32958984 C-200.23351807 716.31013306 -200.23351807 716.31013306 -198.37207031 716.2902832 C-185.44226188 716.29721503 -172.97689293 718.8694476 -163.05810547 727.32958984 C-161.00968332 728.704959 -158.94639426 730.05838279 -156.87060547 731.39208984 C-149.8041826 736.10002631 -144.16618721 740.99534913 -138.67529297 747.46240234 C-136.97188994 749.48207136 -136.97188994 749.48207136 -134.55810547 751.76708984 C-123.59030016 763.00909029 -115.3070268 775.92862572 -112.05810547 791.32958984 C-111.72359375 792.77205078 -111.72359375 792.77205078 -111.38232422 794.24365234 C-107.69667765 812.44623334 -109.7926948 830.67474063 -119.33544922 846.78271484 C-134.19063951 868.74549051 -158.34982279 887.90859662 -184.30810547 894.93896484 C-211.93146321 898.86273725 -239.98778237 891.92758356 -262.46533203 875.58837891 C-278.62935548 863.29609205 -290.09657493 845.57819398 -293.05810547 825.32958984 C-295.01400687 800.41194186 -285.07482984 774.64020187 -269.49560547 755.32958984 C-268.0327496 753.6485888 -266.55392152 751.98133018 -265.05810547 750.32958984 C-264.32849609 749.49298828 -263.59888672 748.65638672 -262.84716797 747.79443359 C-260.62180702 745.26845371 -258.35351339 742.79200714 -256.05810547 740.32958984 C-255.26533203 739.47107422 -254.47255859 738.61255859 -253.65576172 737.72802734 C-243.10404324 726.6928968 -227.87276849 716.66863023 -212.00636292 716.27923584 C-209.03223419 716.30441284 -209.03223419 716.30441284 -206.05810547 716.32958984 C-206.06032608 715.77282059 -206.06254669 715.21605133 -206.06483459 714.64241028 C-206.17414302 685.85268877 -206.07904864 657.10335255 -205.05810547 628.32958984 C-206.19977173 627.90419922 -206.19977173 627.90419922 -207.36450195 627.47021484 C-216.26500487 623.70123545 -219.63056664 615.72471235 -223.05810547 607.32958984 C-229.830662 589.49757259 -234.93382874 570.8831223 -239.58105469 552.40185547 C-244.63844963 532.31139028 -251.38907731 512.92426166 -258.41668701 493.45658875 C-262.90778657 481.00100332 -267.29610099 468.50963259 -271.68310547 456.01708984 C-272.49812705 453.69870143 -273.31323107 451.380342 -274.12841797 449.06201172 C-276.08149513 443.50677988 -278.0318817 437.95060771 -279.9815979 432.39419556 C-280.99925891 429.49711444 -282.01980254 426.60106669 -283.04125977 423.70532227 C-286.36659528 414.26565309 -289.5859834 404.80514456 -292.62060547 395.26708984 C-293.47729921 392.59216788 -294.33619388 389.9179532 -295.19482422 387.24365234 C-295.53281036 386.18973045 -295.53281036 386.18973045 -295.87762451 385.11451721 C-298.57641025 376.70320772 -301.30360281 368.30114469 -304.03598022 359.9006958 C-304.63555311 358.05704537 -305.23469245 356.21325388 -305.83340454 354.36932373 C-309.14077404 344.18517334 -312.4672478 334.00943157 -315.94302368 323.88128662 C-316.73916039 321.55410691 -317.52523772 319.22377228 -318.30810547 316.89208984 C-318.51175468 316.28626886 -318.7154039 315.68044788 -318.9252243 315.05626869 C-322.52881402 304.30069014 -325.83002163 293.49619345 -328.83935547 282.56005859 C-329.04976219 281.79971062 -329.26016891 281.03936264 -329.4769516 280.25597382 C-334.22873226 263.05776801 -338.5232678 245.75255955 -342.73913574 228.41656494 C-343.69586515 224.48691333 -344.65837391 220.55867838 -345.62060547 216.63037109 C-346.74231319 212.05012864 -347.86371881 207.46981572 -348.98217773 202.88877869 C-351.33847135 193.24096491 -353.72325079 183.60072901 -356.1506958 173.97052002 C-357.47181406 168.7207069 -358.74833132 163.46256314 -359.98318481 158.1917572 C-361.87201462 150.22581627 -364.27368653 142.94706922 -367.46044922 135.39990234 C-371.02691468 126.64163484 -373.40244959 117.39352117 -376.05810547 108.32958984 C-376.67767351 106.23447162 -377.29746596 104.13941974 -377.91748047 102.04443359 C-380.43541826 93.50014229 -382.92595799 84.96307908 -385.12060547 76.32958984 C-386.44440482 71.22188334 -388.12594779 66.41316308 -390.05810547 61.51708984 C-394.98401883 48.87164602 -399.68242469 33.00481074 -398.05810547 19.32958984 C-395.36235892 14.84538036 -392.00347246 12.00748222 -387.05810547 10.32958984 C-383.69833616 9.9443142 -380.36158622 9.70415293 -376.98388672 9.54052734 C-373.99623099 9.44629267 -373.99623099 9.44629267 -371.05810547 8.32958984 C-369.31291863 8.31377298 -367.56678146 8.36293103 -365.82373047 8.45068359 C-364.26114502 8.52343506 -364.26114502 8.52343506 -362.66699219 8.59765625 C-361.55855957 8.65356934 -360.45012695 8.70948242 -359.30810547 8.76708984 C-347.66866359 9.28855538 -336.13351418 9.75966037 -324.49951172 8.85302734 C-314.38219691 8.15541014 -304.2580365 8.01311156 -294.12060547 7.82958984 C-290.31973477 7.76065296 -286.51899332 7.68702493 -282.71826172 7.61083984 C-281.46904686 7.59047668 -281.46904686 7.59047668 -280.19459534 7.56970215 C-275.00925984 7.46542316 -269.8516036 7.19954279 -264.67651367 6.85473633 C-255.89285765 6.27394398 -247.10648403 5.98982197 -238.30829239 5.72940254 C-235.41814945 5.64346053 -232.52814765 5.55366362 -229.63815308 5.46287537 C-221.43227355 5.20552362 -213.2262583 4.95291361 -205.02001953 4.70727539 C-183.79853429 4.06988688 -162.6583335 3.36853787 -141.50170898 1.52542114 C-135.8417539 1.07183023 -130.17080688 0.91279007 -124.49560547 0.76708984 C-116.06729647 0.57152522 -116.06729647 0.57152522 -107.67529297 -0.16259766 C-101.38975629 -0.92878205 -95.06997435 -1.05067858 -88.74560547 -1.23291016 C-88.0476889 -1.25342438 -87.34977234 -1.2739386 -86.63070679 -1.29507446 C-57.73403219 -2.11780595 -28.82582147 -2.42172321 0 0 Z " fill="#8FCB5F" transform="translate(2696.05810546875,1699.67041015625)"/>
<path d="M0 0 C6.93087561 0.57950465 13.86618489 1.10234859 20.80078125 1.63513184 C23.29723305 1.8280703 25.79340979 2.02427635 28.28955078 2.22119141 C36.25238412 2.84556746 44.21421776 3.42935506 52.18798828 3.89599609 C52.91955139 3.93916962 53.6511145 3.98234314 54.40484619 4.02682495 C57.82547195 4.22696027 61.24606698 4.41760896 64.66796875 4.59521484 C82.83862735 5.62068526 82.83862735 5.62068526 87.94189453 9.76708984 C91.93933184 14.88880639 91.93933184 14.88880639 91.95361328 17.34521484 C91.84662109 18.08255859 91.73962891 18.81990234 91.62939453 19.57958984 C91.51724609 20.37365234 91.40509766 21.16771484 91.28955078 21.98583984 C91.17482422 22.75927734 91.06009766 23.53271484 90.94189453 24.32958984 C90.81814453 25.56708984 90.69439453 26.80458984 90.56689453 28.07958984 C89.90476798 31.5226479 88.7495063 33.36428478 86.94189453 36.32958984 C86.21706033 37.97061448 85.53186139 39.62960877 84.88330078 41.30224609 C84.50359131 42.27000977 84.12388184 43.23777344 83.73266602 44.23486328 C83.32733643 45.27674805 82.92200684 46.31863281 82.50439453 47.39208984 C77.36839951 60.41465008 71.88271231 73.27087317 66.32324219 86.1171875 C65.08912292 88.98720187 63.87465789 91.86410305 62.67236328 94.74755859 C54.66015029 113.90527285 45.60593699 132.6405434 35.83398438 150.96142578 C20.19483564 180.35017649 6.51216393 210.46051891 -5.71452332 241.42692566 C-11.00157309 254.79309116 -16.49878811 268.07470661 -22.05810547 281.32958984 C-22.52587402 282.44736816 -22.99364258 283.56514648 -23.47558594 284.71679688 C-28.45697069 296.51943838 -33.8776645 308.05579521 -39.64013672 319.49365234 C-40.14294662 320.49251465 -40.64575653 321.49137695 -41.1638031 322.52050781 C-43.6864234 327.52338917 -46.22424549 332.51772688 -48.78637695 337.50048828 C-54.73396649 349.14995133 -59.8000625 360.85816154 -64.24555969 373.15763855 C-65.40826993 376.26558652 -66.72643972 379.29052366 -68.05810547 382.32958984 C-68.67897598 383.96919483 -69.28415758 385.61485996 -69.87060547 387.26708984 C-74.62111573 400.49481398 -79.69469175 413.55273349 -85.12060547 426.51708984 C-85.44247833 427.28773773 -85.7643512 428.05838562 -86.09597778 428.85238647 C-102.94422095 469.14710827 -102.94422095 469.14710827 -112.03466797 485.54443359 C-114.74968964 490.5155418 -117.13177649 495.65087953 -119.55810547 500.76708984 C-123.948836 510.013557 -128.4008659 519.21440264 -133.05810547 528.32958984 C-133.52974121 529.25497559 -134.00137695 530.18036133 -134.48730469 531.13378906 C-143.56308041 548.89787361 -153.00905853 566.28765381 -163.93310547 582.98583984 C-166.1540219 586.48051717 -168.21758811 590.03376143 -170.24560547 593.64208984 C-177.08419364 605.74953039 -177.08419364 605.74953039 -180.05810547 609.32958984 C-180.71810547 609.32958984 -181.37810547 609.32958984 -182.05810547 609.32958984 C-182.29271484 610.20099609 -182.52732422 611.07240234 -182.76904297 611.97021484 C-185.15109851 618.17799594 -190.32843387 624.42932538 -196.31982422 627.48193359 C-200.56216422 628.58898232 -205.24413503 629.18209185 -209.26904297 627.29052734 C-228.9772357 612.84733917 -233.98921955 574.63968045 -239.58105469 552.40185547 C-244.63844963 532.31139028 -251.38907731 512.92426166 -258.41668701 493.45658875 C-262.90778657 481.00100332 -267.29610099 468.50963259 -271.68310547 456.01708984 C-272.49812705 453.69870143 -273.31323107 451.380342 -274.12841797 449.06201172 C-276.08149513 443.50677988 -278.0318817 437.95060771 -279.9815979 432.39419556 C-280.99925891 429.49711444 -282.01980254 426.60106669 -283.04125977 423.70532227 C-286.36659528 414.26565309 -289.5859834 404.80514456 -292.62060547 395.26708984 C-293.47729921 392.59216788 -294.33619388 389.9179532 -295.19482422 387.24365234 C-295.53281036 386.18973045 -295.53281036 386.18973045 -295.87762451 385.11451721 C-298.57641025 376.70320772 -301.30360281 368.30114469 -304.03598022 359.9006958 C-304.63555311 358.05704537 -305.23469245 356.21325388 -305.83340454 354.36932373 C-309.14077404 344.18517334 -312.4672478 334.00943157 -315.94302368 323.88128662 C-316.73916039 321.55410691 -317.52523772 319.22377228 -318.30810547 316.89208984 C-318.51175468 316.28626886 -318.7154039 315.68044788 -318.9252243 315.05626869 C-322.52881402 304.30069014 -325.83002163 293.49619345 -328.83935547 282.56005859 C-329.04976219 281.79971062 -329.26016891 281.03936264 -329.4769516 280.25597382 C-334.22873226 263.05776801 -338.5232678 245.75255955 -342.73913574 228.41656494 C-343.69586515 224.48691333 -344.65837391 220.55867838 -345.62060547 216.63037109 C-346.74231319 212.05012864 -347.86371881 207.46981572 -348.98217773 202.88877869 C-351.33847135 193.24096491 -353.72325079 183.60072901 -356.1506958 173.97052002 C-357.47181406 168.7207069 -358.74833132 163.46256314 -359.98318481 158.1917572 C-361.87201462 150.22581627 -364.27368653 142.94706922 -367.46044922 135.39990234 C-371.02691468 126.64163484 -373.40244959 117.39352117 -376.05810547 108.32958984 C-376.67767351 106.23447162 -377.29746596 104.13941974 -377.91748047 102.04443359 C-380.43541826 93.50014229 -382.92595799 84.96307908 -385.12060547 76.32958984 C-386.44440482 71.22188334 -388.12594779 66.41316308 -390.05810547 61.51708984 C-394.98401883 48.87164602 -399.68242469 33.00481074 -398.05810547 19.32958984 C-395.36235892 14.84538036 -392.00347246 12.00748222 -387.05810547 10.32958984 C-383.69833616 9.9443142 -380.36158622 9.70415293 -376.98388672 9.54052734 C-373.99623099 9.44629267 -373.99623099 9.44629267 -371.05810547 8.32958984 C-369.31291863 8.31377298 -367.56678146 8.36293103 -365.82373047 8.45068359 C-364.26114502 8.52343506 -364.26114502 8.52343506 -362.66699219 8.59765625 C-361.55855957 8.65356934 -360.45012695 8.70948242 -359.30810547 8.76708984 C-347.66866359 9.28855538 -336.13351418 9.75966037 -324.49951172 8.85302734 C-314.38219691 8.15541014 -304.2580365 8.01311156 -294.12060547 7.82958984 C-290.31973477 7.76065296 -286.51899332 7.68702493 -282.71826172 7.61083984 C-281.46904686 7.59047668 -281.46904686 7.59047668 -280.19459534 7.56970215 C-275.00925984 7.46542316 -269.8516036 7.19954279 -264.67651367 6.85473633 C-255.89285765 6.27394398 -247.10648403 5.98982197 -238.30829239 5.72940254 C-235.41814945 5.64346053 -232.52814765 5.55366362 -229.63815308 5.46287537 C-221.43227355 5.20552362 -213.2262583 4.95291361 -205.02001953 4.70727539 C-183.79853429 4.06988688 -162.6583335 3.36853787 -141.50170898 1.52542114 C-135.8417539 1.07183023 -130.17080688 0.91279007 -124.49560547 0.76708984 C-116.06729647 0.57152522 -116.06729647 0.57152522 -107.67529297 -0.16259766 C-101.38975629 -0.92878205 -95.06997435 -1.05067858 -88.74560547 -1.23291016 C-88.0476889 -1.25342438 -87.34977234 -1.2739386 -86.63070679 -1.29507446 C-57.73403219 -2.11780595 -28.82582147 -2.42172321 0 0 Z " fill="#8FCB5F" transform="translate(2699.05810546875,2740.67041015625)"/>
<path d="M0 0 C6.93087561 0.57950465 13.86618489 1.10234859 20.80078125 1.63513184 C23.29723305 1.8280703 25.79340979 2.02427635 28.28955078 2.22119141 C36.25238412 2.84556746 44.21421776 3.42935506 52.18798828 3.89599609 C52.91955139 3.93916962 53.6511145 3.98234314 54.40484619 4.02682495 C57.82547195 4.22696027 61.24606698 4.41760896 64.66796875 4.59521484 C82.83862735 5.62068526 82.83862735 5.62068526 87.94189453 9.76708984 C91.93933184 14.88880639 91.93933184 14.88880639 91.95361328 17.34521484 C91.84662109 18.08255859 91.73962891 18.81990234 91.62939453 19.57958984 C91.51724609 20.37365234 91.40509766 21.16771484 91.28955078 21.98583984 C91.17482422 22.75927734 91.06009766 23.53271484 90.94189453 24.32958984 C90.81814453 25.56708984 90.69439453 26.80458984 90.56689453 28.07958984 C89.90476798 31.5226479 88.7495063 33.36428478 86.94189453 36.32958984 C86.21706033 37.97061448 85.53186139 39.62960877 84.88330078 41.30224609 C84.50359131 42.27000977 84.12388184 43.23777344 83.73266602 44.23486328 C83.32733643 45.27674805 82.92200684 46.31863281 82.50439453 47.39208984 C77.36839951 60.41465008 71.88271231 73.27087317 66.32324219 86.1171875 C65.08912292 88.98720187 63.87465789 91.86410305 62.67236328 94.74755859 C54.66015029 113.90527285 45.60593699 132.6405434 35.83398438 150.96142578 C20.19483564 180.35017649 6.51216393 210.46051891 -5.71452332 241.42692566 C-11.00157309 254.79309116 -16.49878811 268.07470661 -22.05810547 281.32958984 C-22.52587402 282.44736816 -22.99364258 283.56514648 -23.47558594 284.71679688 C-28.45697069 296.51943838 -33.8776645 308.05579521 -39.64013672 319.49365234 C-40.14294662 320.49251465 -40.64575653 321.49137695 -41.1638031 322.52050781 C-43.6864234 327.52338917 -46.22424549 332.51772688 -48.78637695 337.50048828 C-54.73396649 349.14995133 -59.8000625 360.85816154 -64.24555969 373.15763855 C-65.40826993 376.26558652 -66.72643972 379.29052366 -68.05810547 382.32958984 C-68.67897598 383.96919483 -69.28415758 385.61485996 -69.87060547 387.26708984 C-74.62111573 400.49481398 -79.69469175 413.55273349 -85.12060547 426.51708984 C-85.44247833 427.28773773 -85.7643512 428.05838562 -86.09597778 428.85238647 C-102.94422095 469.14710827 -102.94422095 469.14710827 -112.03466797 485.54443359 C-114.74968964 490.5155418 -117.13177649 495.65087953 -119.55810547 500.76708984 C-123.948836 510.013557 -128.4008659 519.21440264 -133.05810547 528.32958984 C-133.52974121 529.25497559 -134.00137695 530.18036133 -134.48730469 531.13378906 C-143.56308041 548.89787361 -153.00905853 566.28765381 -163.93310547 582.98583984 C-166.1540219 586.48051717 -168.21758811 590.03376143 -170.24560547 593.64208984 C-177.08419364 605.74953039 -177.08419364 605.74953039 -180.05810547 609.32958984 C-180.71810547 609.32958984 -181.37810547 609.32958984 -182.05810547 609.32958984 C-182.29271484 610.20099609 -182.52732422 611.07240234 -182.76904297 611.97021484 C-185.15109851 618.17799594 -190.32843387 624.42932538 -196.31982422 627.48193359 C-200.56216422 628.58898232 -205.24413503 629.18209185 -209.26904297 627.29052734 C-228.9772357 612.84733917 -233.98921955 574.63968045 -239.58105469 552.40185547 C-244.63844963 532.31139028 -251.38907731 512.92426166 -258.41668701 493.45658875 C-262.90778657 481.00100332 -267.29610099 468.50963259 -271.68310547 456.01708984 C-272.49812705 453.69870143 -273.31323107 451.380342 -274.12841797 449.06201172 C-276.08149513 443.50677988 -278.0318817 437.95060771 -279.9815979 432.39419556 C-280.99925891 429.49711444 -282.01980254 426.60106669 -283.04125977 423.70532227 C-286.36659528 414.26565309 -289.5859834 404.80514456 -292.62060547 395.26708984 C-293.47729921 392.59216788 -294.33619388 389.9179532 -295.19482422 387.24365234 C-295.53281036 386.18973045 -295.53281036 386.18973045 -295.87762451 385.11451721 C-298.57641025 376.70320772 -301.30360281 368.30114469 -304.03598022 359.9006958 C-304.63555311 358.05704537 -305.23469245 356.21325388 -305.83340454 354.36932373 C-309.14077404 344.18517334 -312.4672478 334.00943157 -315.94302368 323.88128662 C-316.73916039 321.55410691 -317.52523772 319.22377228 -318.30810547 316.89208984 C-318.51175468 316.28626886 -318.7154039 315.68044788 -318.9252243 315.05626869 C-322.52881402 304.30069014 -325.83002163 293.49619345 -328.83935547 282.56005859 C-329.04976219 281.79971062 -329.26016891 281.03936264 -329.4769516 280.25597382 C-334.22873226 263.05776801 -338.5232678 245.75255955 -342.73913574 228.41656494 C-343.69586515 224.48691333 -344.65837391 220.55867838 -345.62060547 216.63037109 C-346.74231319 212.05012864 -347.86371881 207.46981572 -348.98217773 202.88877869 C-351.33847135 193.24096491 -353.72325079 183.60072901 -356.1506958 173.97052002 C-357.47181406 168.7207069 -358.74833132 163.46256314 -359.98318481 158.1917572 C-361.87201462 150.22581627 -364.27368653 142.94706922 -367.46044922 135.39990234 C-371.02691468 126.64163484 -373.40244959 117.39352117 -376.05810547 108.32958984 C-376.67767351 106.23447162 -377.29746596 104.13941974 -377.91748047 102.04443359 C-380.43541826 93.50014229 -382.92595799 84.96307908 -385.12060547 76.32958984 C-386.44440482 71.22188334 -388.12594779 66.41316308 -390.05810547 61.51708984 C-394.98401883 48.87164602 -399.68242469 33.00481074 -398.05810547 19.32958984 C-395.36235892 14.84538036 -392.00347246 12.00748222 -387.05810547 10.32958984 C-383.69833616 9.9443142 -380.36158622 9.70415293 -376.98388672 9.54052734 C-373.99623099 9.44629267 -373.99623099 9.44629267 -371.05810547 8.32958984 C-369.31291863 8.31377298 -367.56678146 8.36293103 -365.82373047 8.45068359 C-364.26114502 8.52343506 -364.26114502 8.52343506 -362.66699219 8.59765625 C-361.55855957 8.65356934 -360.45012695 8.70948242 -359.30810547 8.76708984 C-347.66866359 9.28855538 -336.13351418 9.75966037 -324.49951172 8.85302734 C-314.38219691 8.15541014 -304.2580365 8.01311156 -294.12060547 7.82958984 C-290.31973477 7.76065296 -286.51899332 7.68702493 -282.71826172 7.61083984 C-281.46904686 7.59047668 -281.46904686 7.59047668 -280.19459534 7.56970215 C-275.00925984 7.46542316 -269.8516036 7.19954279 -264.67651367 6.85473633 C-255.89285765 6.27394398 -247.10648403 5.98982197 -238.30829239 5.72940254 C-235.41814945 5.64346053 -232.52814765 5.55366362 -229.63815308 5.46287537 C-221.43227355 5.20552362 -213.2262583 4.95291361 -205.02001953 4.70727539 C-183.79853429 4.06988688 -162.6583335 3.36853787 -141.50170898 1.52542114 C-135.8417539 1.07183023 -130.17080688 0.91279007 -124.49560547 0.76708984 C-116.06729647 0.57152522 -116.06729647 0.57152522 -107.67529297 -0.16259766 C-101.38975629 -0.92878205 -95.06997435 -1.05067858 -88.74560547 -1.23291016 C-88.0476889 -1.25342438 -87.34977234 -1.2739386 -86.63070679 -1.29507446 C-57.73403219 -2.11780595 -28.82582147 -2.42172321 0 0 Z " fill="#FF0E00" transform="translate(2139.05810546875,2740.67041015625)"/>
<path d="M0 0 C6.93087561 0.57950465 13.86618489 1.10234859 20.80078125 1.63513184 C23.29723305 1.8280703 25.79340979 2.02427635 28.28955078 2.22119141 C36.25238412 2.84556746 44.21421776 3.42935506 52.18798828 3.89599609 C52.91955139 3.93916962 53.6511145 3.98234314 54.40484619 4.02682495 C57.82547195 4.22696027 61.24606698 4.41760896 64.66796875 4.59521484 C82.83862735 5.62068526 82.83862735 5.62068526 87.94189453 9.76708984 C91.93933184 14.88880639 91.93933184 14.88880639 91.95361328 17.34521484 C91.84662109 18.08255859 91.73962891 18.81990234 91.62939453 19.57958984 C91.51724609 20.37365234 91.40509766 21.16771484 91.28955078 21.98583984 C91.17482422 22.75927734 91.06009766 23.53271484 90.94189453 24.32958984 C90.81814453 25.56708984 90.69439453 26.80458984 90.56689453 28.07958984 C89.90476798 31.5226479 88.7495063 33.36428478 86.94189453 36.32958984 C86.21706033 37.97061448 85.53186139 39.62960877 84.88330078 41.30224609 C84.50359131 42.27000977 84.12388184 43.23777344 83.73266602 44.23486328 C83.32733643 45.27674805 82.92200684 46.31863281 82.50439453 47.39208984 C77.36839951 60.41465008 71.88271231 73.27087317 66.32324219 86.1171875 C65.08912292 88.98720187 63.87465789 91.86410305 62.67236328 94.74755859 C54.66015029 113.90527285 45.60593699 132.6405434 35.83398438 150.96142578 C20.19483564 180.35017649 6.51216393 210.46051891 -5.71452332 241.42692566 C-11.00157309 254.79309116 -16.49878811 268.07470661 -22.05810547 281.32958984 C-22.52587402 282.44736816 -22.99364258 283.56514648 -23.47558594 284.71679688 C-28.45697069 296.51943838 -33.8776645 308.05579521 -39.64013672 319.49365234 C-40.14294662 320.49251465 -40.64575653 321.49137695 -41.1638031 322.52050781 C-43.6864234 327.52338917 -46.22424549 332.51772688 -48.78637695 337.50048828 C-54.73396649 349.14995133 -59.8000625 360.85816154 -64.24555969 373.15763855 C-65.40826993 376.26558652 -66.72643972 379.29052366 -68.05810547 382.32958984 C-68.67897598 383.96919483 -69.28415758 385.61485996 -69.87060547 387.26708984 C-74.62111573 400.49481398 -79.69469175 413.55273349 -85.12060547 426.51708984 C-85.44247833 427.28773773 -85.7643512 428.05838562 -86.09597778 428.85238647 C-102.94422095 469.14710827 -102.94422095 469.14710827 -112.03466797 485.54443359 C-114.74968964 490.5155418 -117.13177649 495.65087953 -119.55810547 500.76708984 C-123.948836 510.013557 -128.4008659 519.21440264 -133.05810547 528.32958984 C-133.52974121 529.25497559 -134.00137695 530.18036133 -134.48730469 531.13378906 C-143.56308041 548.89787361 -153.00905853 566.28765381 -163.93310547 582.98583984 C-166.1540219 586.48051717 -168.21758811 590.03376143 -170.24560547 593.64208984 C-177.08419364 605.74953039 -177.08419364 605.74953039 -180.05810547 609.32958984 C-180.71810547 609.32958984 -181.37810547 609.32958984 -182.05810547 609.32958984 C-182.39841797 610.63476562 -182.39841797 610.63476562 -182.74560547 611.96630859 C-184.26611391 615.86261147 -186.20037654 618.10575286 -189.05810547 621.14208984 C-190.38841797 622.57488281 -190.38841797 622.57488281 -191.74560547 624.03662109 C-195.62489501 627.88314636 -195.95413425 627.32958984 -202.05810547 627.32958984 C-202.05810547 656.69958984 -202.05810547 686.06958984 -202.05810547 716.32958984 C-199.41810547 716.32958984 -196.77810547 716.32958984 -194.05810547 716.32958984 C-182.28101208 717.45617848 -172.17829125 719.55060786 -163.05810547 727.32958984 C-161.00968332 728.704959 -158.94639426 730.05838279 -156.87060547 731.39208984 C-149.8041826 736.10002631 -144.16618721 740.99534913 -138.67529297 747.46240234 C-136.97188994 749.48207136 -136.97188994 749.48207136 -134.55810547 751.76708984 C-123.59030016 763.00909029 -115.3070268 775.92862572 -112.05810547 791.32958984 C-111.72359375 792.77205078 -111.72359375 792.77205078 -111.38232422 794.24365234 C-107.69667765 812.44623334 -109.7926948 830.67474063 -119.33544922 846.78271484 C-134.19063951 868.74549051 -158.34982279 887.90859662 -184.30810547 894.93896484 C-211.93146321 898.86273725 -239.98778237 891.92758356 -262.46533203 875.58837891 C-278.62935548 863.29609205 -290.09657493 845.57819398 -293.05810547 825.32958984 C-295.01400687 800.41194186 -285.07482984 774.64020187 -269.49560547 755.32958984 C-268.0327496 753.6485888 -266.55392152 751.98133018 -265.05810547 750.32958984 C-264.32849609 749.49298828 -263.59888672 748.65638672 -262.84716797 747.79443359 C-260.62180702 745.26845371 -258.35351339 742.79200714 -256.05810547 740.32958984 C-255.26533203 739.47107422 -254.47255859 738.61255859 -253.65576172 737.72802734 C-243.10404324 726.6928968 -227.87276849 716.66863023 -212.00636292 716.27923584 C-209.03223419 716.30441284 -209.03223419 716.30441284 -206.05810547 716.32958984 C-205.98021138 704.97646022 -205.95082108 693.62433194 -205.98294735 682.27094936 C-205.9963507 676.99866497 -205.99319607 671.72748451 -205.9519043 666.45532227 C-205.91264992 661.36488876 -205.91727763 656.27619452 -205.95202827 651.18574715 C-205.95761701 649.24612632 -205.94752895 647.3063935 -205.92133904 645.36694145 C-205.36300154 634.94644743 -205.36300154 634.94644743 -209.05895996 625.64874268 C-211.31924467 623.90461321 -213.53972388 622.65163027 -216.05810547 621.32958984 C-229.43472749 602.73753396 -234.0988548 574.20367876 -239.58105469 552.40185547 C-244.63844963 532.31139028 -251.38907731 512.92426166 -258.41668701 493.45658875 C-262.90778657 481.00100332 -267.29610099 468.50963259 -271.68310547 456.01708984 C-272.49812705 453.69870143 -273.31323107 451.380342 -274.12841797 449.06201172 C-276.08149513 443.50677988 -278.0318817 437.95060771 -279.9815979 432.39419556 C-280.99925891 429.49711444 -282.01980254 426.60106669 -283.04125977 423.70532227 C-286.36659528 414.26565309 -289.5859834 404.80514456 -292.62060547 395.26708984 C-293.47729921 392.59216788 -294.33619388 389.9179532 -295.19482422 387.24365234 C-295.53281036 386.18973045 -295.53281036 386.18973045 -295.87762451 385.11451721 C-298.57641025 376.70320772 -301.30360281 368.30114469 -304.03598022 359.9006958 C-304.63555311 358.05704537 -305.23469245 356.21325388 -305.83340454 354.36932373 C-309.14077404 344.18517334 -312.4672478 334.00943157 -315.94302368 323.88128662 C-316.73916039 321.55410691 -317.52523772 319.22377228 -318.30810547 316.89208984 C-318.51175468 316.28626886 -318.7154039 315.68044788 -318.9252243 315.05626869 C-322.52881402 304.30069014 -325.83002163 293.49619345 -328.83935547 282.56005859 C-329.04976219 281.79971062 -329.26016891 281.03936264 -329.4769516 280.25597382 C-334.22873226 263.05776801 -338.5232678 245.75255955 -342.73913574 228.41656494 C-343.69586515 224.48691333 -344.65837391 220.55867838 -345.62060547 216.63037109 C-346.74231319 212.05012864 -347.86371881 207.46981572 -348.98217773 202.88877869 C-351.33847135 193.24096491 -353.72325079 183.60072901 -356.1506958 173.97052002 C-357.47181406 168.7207069 -358.74833132 163.46256314 -359.98318481 158.1917572 C-361.87201462 150.22581627 -364.27368653 142.94706922 -367.46044922 135.39990234 C-371.02691468 126.64163484 -373.40244959 117.39352117 -376.05810547 108.32958984 C-376.67767351 106.23447162 -377.29746596 104.13941974 -377.91748047 102.04443359 C-380.43541826 93.50014229 -382.92595799 84.96307908 -385.12060547 76.32958984 C-386.44440482 71.22188334 -388.12594779 66.41316308 -390.05810547 61.51708984 C-394.98401883 48.87164602 -399.68242469 33.00481074 -398.05810547 19.32958984 C-395.36235892 14.84538036 -392.00347246 12.00748222 -387.05810547 10.32958984 C-383.69833616 9.9443142 -380.36158622 9.70415293 -376.98388672 9.54052734 C-373.99623099 9.44629267 -373.99623099 9.44629267 -371.05810547 8.32958984 C-369.31291863 8.31377298 -367.56678146 8.36293103 -365.82373047 8.45068359 C-364.26114502 8.52343506 -364.26114502 8.52343506 -362.66699219 8.59765625 C-361.55855957 8.65356934 -360.45012695 8.70948242 -359.30810547 8.76708984 C-347.66866359 9.28855538 -336.13351418 9.75966037 -324.49951172 8.85302734 C-314.38219691 8.15541014 -304.2580365 8.01311156 -294.12060547 7.82958984 C-290.31973477 7.76065296 -286.51899332 7.68702493 -282.71826172 7.61083984 C-281.46904686 7.59047668 -281.46904686 7.59047668 -280.19459534 7.56970215 C-275.00925984 7.46542316 -269.8516036 7.19954279 -264.67651367 6.85473633 C-255.89285765 6.27394398 -247.10648403 5.98982197 -238.30829239 5.72940254 C-235.41814945 5.64346053 -232.52814765 5.55366362 -229.63815308 5.46287537 C-221.43227355 5.20552362 -213.2262583 4.95291361 -205.02001953 4.70727539 C-183.79853429 4.06988688 -162.6583335 3.36853787 -141.50170898 1.52542114 C-135.8417539 1.07183023 -130.17080688 0.91279007 -124.49560547 0.76708984 C-116.06729647 0.57152522 -116.06729647 0.57152522 -107.67529297 -0.16259766 C-101.38975629 -0.92878205 -95.06997435 -1.05067858 -88.74560547 -1.23291016 C-88.0476889 -1.25342438 -87.34977234 -1.2739386 -86.63070679 -1.29507446 C-57.73403219 -2.11780595 -28.82582147 -2.42172321 0 0 Z M-44.00775146 36.83355713 C-50.93525839 37.37690729 -57.80526186 37.44361512 -64.75073242 37.39550781 C-66.75174578 37.38833253 -68.75275915 37.38116164 -70.75377309 37.37415147 C-72.88166659 37.36581287 -75.0095357 37.35501172 -77.13741493 37.34362411 C-81.63148777 37.32017579 -86.12555676 37.30713853 -90.61967468 37.29592896 C-103.3932383 37.26283214 -116.16673438 37.22174356 -128.94018555 37.15820312 C-179.03305955 36.84401723 -179.03305955 36.84401723 -228.99596405 40.1220932 C-251.12477138 42.34873643 -273.19022761 43.64711231 -295.42828369 44.12176514 C-297.98092901 44.17625787 -300.5334737 44.23573136 -303.08587646 44.30059814 C-316.12760885 44.61806972 -328.59650065 44.62517959 -341.41552734 42.04638672 C-345.84774291 41.17420274 -350.17768503 40.79608371 -354.68310547 40.64208984 C-355.41271484 40.60792969 -356.14232422 40.57376953 -356.89404297 40.53857422 C-358.61498217 40.45932044 -360.33650189 40.39278795 -362.05810547 40.32958984 C-360.58829554 45.9332402 -358.74246963 51.15412173 -356.39064026 56.43553162 C-351.16876235 68.24629034 -347.56548468 80.34203965 -344.12060547 92.76708984 C-343.51378978 94.92191854 -342.90652461 97.07662071 -342.29882812 99.23120117 C-338.24458387 113.68575433 -334.42506861 128.19412947 -330.89819336 142.78637695 C-330.73543411 143.45943375 -330.57267487 144.13249054 -330.40498352 144.82594299 C-330.24668564 145.48070114 -330.08838776 146.13545929 -329.92529297 146.81005859 C-328.46931858 152.82036381 -326.81083901 158.74073963 -324.9921875 164.65112305 C-324.22039025 167.6905034 -323.6725815 170.60496209 -323.19262695 173.6965332 C-321.91582074 181.64518208 -319.95835034 189.41313795 -318.02294922 197.22021484 C-317.62114231 198.85270347 -317.21958237 200.4852529 -316.81825256 202.11785889 C-315.97646053 205.53764948 -315.13136559 208.95660232 -314.28393555 212.375 C-313.43317534 215.80785119 -312.58672882 219.24171213 -311.74487305 222.67675781 C-301.68125424 263.94411557 -301.68125424 263.94411557 -289.10830688 304.49850464 C-287.84496018 308.15847001 -286.61328621 311.82922027 -285.37451172 315.49755859 C-285.1111351 316.27488846 -284.84775848 317.05221832 -284.57640076 317.85310364 C-281.09809125 328.13258936 -277.73516834 338.44993712 -274.37060547 348.76708984 C-274.04745361 349.75636475 -273.72430176 350.74563965 -273.39135742 351.76489258 C-269.62631601 363.296455 -265.95126427 374.84516224 -262.43310547 386.45458984 C-258.4445828 399.5614977 -253.79113991 412.39875139 -249.08708191 425.26092529 C-248.67441826 426.38932831 -248.67441826 426.38932831 -248.25341797 427.54052734 C-247.97971878 428.2887677 -247.70601959 429.03700806 -247.42402649 429.80792236 C-244.43873169 437.99064132 -241.61267719 446.22564109 -238.79443359 454.46728516 C-236.12818443 462.25350553 -233.4066166 470.01782383 -230.6496582 477.7722168 C-228.85598709 482.81897365 -227.08029519 487.87200199 -225.30891418 492.92662048 C-224.08826637 496.40775818 -222.8612946 499.8862676 -221.61523438 503.35839844 C-214.76050381 522.48590727 -209.57753737 541.64425446 -205.40527344 561.54223633 C-205.21000565 562.44462036 -205.01473785 563.34700439 -204.81355286 564.2767334 C-204.44612138 565.97790187 -204.09259993 567.68215326 -203.75517273 569.38952637 C-202.90419739 573.68692733 -202.90419739 573.68692733 -200.09301758 576.84936523 C-197.68737283 577.41708008 -195.5209123 577.46641245 -193.05810547 577.32958984 C-190.12963472 572.35769728 -187.58338946 567.32366269 -185.18310547 562.07958984 C-182.95043843 557.25816606 -180.68217423 552.51647332 -178.05810547 547.89208984 C-175.01602143 542.47751092 -172.55476976 536.84542022 -170.12451172 531.13647461 C-167.91468053 526.0147782 -165.36556942 521.16831861 -162.66455078 516.28955078 C-159.75418857 510.9270536 -157.09270834 505.44474053 -154.43310547 499.95458984 C-153.98488937 499.0309816 -153.98488937 499.0309816 -153.52761841 498.0887146 C-148.28080255 487.24217051 -143.54026482 476.22950881 -139.05371094 465.04882812 C-136.6551321 459.08348162 -134.10060934 453.32106797 -131.16381836 447.6027832 C-129.48570058 444.15280427 -128.28693691 440.58297759 -127.05810547 436.95458984 C-122.35605368 423.66841819 -116.07491898 411.05536671 -110.05810547 398.32958984 C-103.86529795 385.19531655 -98.19760266 371.88508144 -92.68643188 358.45352173 C-86.0447719 342.27250298 -79.15607559 326.48634167 -70.76123047 311.12646484 C-58.04518228 287.70658406 -48.12506717 262.86438881 -38.35028076 238.10829163 C-29.56194221 215.88229645 -20.34202827 193.91079085 -10.05810547 172.32958984 C-9.27064941 170.66428223 -9.27064941 170.66428223 -8.46728516 168.96533203 C-1.92481129 155.14215889 4.85747769 141.47062733 11.89837646 127.8951416 C22.77659749 106.92054505 32.70909338 85.68220549 41.67236328 63.81005859 C43.98718942 58.17485763 46.42773761 52.59919946 48.96264648 47.05957031 C50.21272987 44.27541514 50.94189453 42.42471614 50.94189453 39.32958984 C28.93689181 34.53721176 4.44817123 36.23426959 -17.99560547 36.20458984 C-18.89629761 36.20200165 -19.79698975 36.19941345 -20.72497559 36.19674683 C-23.34517207 36.19080026 -25.96525132 36.19251343 -28.58544922 36.19677734 C-29.34822678 36.19479843 -30.11100433 36.19281952 -30.89689636 36.19078064 C-35.29538595 36.20898902 -39.62580158 36.446233 -44.00775146 36.83355713 Z " fill="#000000" transform="translate(2136.05810546875,1699.67041015625)"/>
<path d="M0 0 C6.93087561 0.57950465 13.86618489 1.10234859 20.80078125 1.63513184 C23.29723305 1.8280703 25.79340979 2.02427635 28.28955078 2.22119141 C36.25238412 2.84556746 44.21421776 3.42935506 52.18798828 3.89599609 C52.91955139 3.93916962 53.6511145 3.98234314 54.40484619 4.02682495 C57.82547195 4.22696027 61.24606698 4.41760896 64.66796875 4.59521484 C82.83862735 5.62068526 82.83862735 5.62068526 87.94189453 9.76708984 C91.93933184 14.88880639 91.93933184 14.88880639 91.95361328 17.34521484 C91.84662109 18.08255859 91.73962891 18.81990234 91.62939453 19.57958984 C91.51724609 20.37365234 91.40509766 21.16771484 91.28955078 21.98583984 C91.17482422 22.75927734 91.06009766 23.53271484 90.94189453 24.32958984 C90.81814453 25.56708984 90.69439453 26.80458984 90.56689453 28.07958984 C89.90476798 31.5226479 88.7495063 33.36428478 86.94189453 36.32958984 C86.21706033 37.97061448 85.53186139 39.62960877 84.88330078 41.30224609 C84.50359131 42.27000977 84.12388184 43.23777344 83.73266602 44.23486328 C83.32733643 45.27674805 82.92200684 46.31863281 82.50439453 47.39208984 C77.36839951 60.41465008 71.88271231 73.27087317 66.32324219 86.1171875 C65.08912292 88.98720187 63.87465789 91.86410305 62.67236328 94.74755859 C54.66015029 113.90527285 45.60593699 132.6405434 35.83398438 150.96142578 C20.19483564 180.35017649 6.51216393 210.46051891 -5.71452332 241.42692566 C-11.00157309 254.79309116 -16.49878811 268.07470661 -22.05810547 281.32958984 C-22.52587402 282.44736816 -22.99364258 283.56514648 -23.47558594 284.71679688 C-28.45697069 296.51943838 -33.8776645 308.05579521 -39.64013672 319.49365234 C-40.14294662 320.49251465 -40.64575653 321.49137695 -41.1638031 322.52050781 C-43.6864234 327.52338917 -46.22424549 332.51772688 -48.78637695 337.50048828 C-54.73396649 349.14995133 -59.8000625 360.85816154 -64.24555969 373.15763855 C-65.40826993 376.26558652 -66.72643972 379.29052366 -68.05810547 382.32958984 C-68.67897598 383.96919483 -69.28415758 385.61485996 -69.87060547 387.26708984 C-74.62111573 400.49481398 -79.69469175 413.55273349 -85.12060547 426.51708984 C-85.44247833 427.28773773 -85.7643512 428.05838562 -86.09597778 428.85238647 C-102.94422095 469.14710827 -102.94422095 469.14710827 -112.03466797 485.54443359 C-114.74968964 490.5155418 -117.13177649 495.65087953 -119.55810547 500.76708984 C-123.948836 510.013557 -128.4008659 519.21440264 -133.05810547 528.32958984 C-133.52974121 529.25497559 -134.00137695 530.18036133 -134.48730469 531.13378906 C-143.56308041 548.89787361 -153.00905853 566.28765381 -163.93310547 582.98583984 C-166.1540219 586.48051717 -168.21758811 590.03376143 -170.24560547 593.64208984 C-177.08419364 605.74953039 -177.08419364 605.74953039 -180.05810547 609.32958984 C-180.71810547 609.32958984 -181.37810547 609.32958984 -182.05810547 609.32958984 C-182.29142578 610.19970703 -182.52474609 611.06982422 -182.76513672 611.96630859 C-184.23012555 615.77704994 -186.03187405 618.10420674 -188.74560547 621.14208984 C-189.57447266 622.09728516 -190.40333984 623.05248047 -191.25732422 624.03662109 C-194.60792079 626.77971759 -196.8287949 626.87588379 -201.05810547 627.32958984 C-201.05230469 628.35858398 -201.04650391 629.38757812 -201.04052734 630.44775391 C-200.97935565 647.19703349 -201.26508773 663.94197997 -201.52166748 680.68865967 C-201.58308555 684.71869298 -201.64277916 688.74875185 -201.70263672 692.77880859 C-201.81948005 700.62909435 -201.93817206 708.47935062 -202.05810547 716.32958984 C-200.23351807 716.31013306 -200.23351807 716.31013306 -198.37207031 716.2902832 C-185.44226188 716.29721503 -172.97689293 718.8694476 -163.05810547 727.32958984 C-161.00968332 728.704959 -158.94639426 730.05838279 -156.87060547 731.39208984 C-149.8041826 736.10002631 -144.16618721 740.99534913 -138.67529297 747.46240234 C-136.97188994 749.48207136 -136.97188994 749.48207136 -134.55810547 751.76708984 C-123.59030016 763.00909029 -115.3070268 775.92862572 -112.05810547 791.32958984 C-111.72359375 792.77205078 -111.72359375 792.77205078 -111.38232422 794.24365234 C-107.69667765 812.44623334 -109.7926948 830.67474063 -119.33544922 846.78271484 C-134.19063951 868.74549051 -158.34982279 887.90859662 -184.30810547 894.93896484 C-211.93146321 898.86273725 -239.98778237 891.92758356 -262.46533203 875.58837891 C-278.62935548 863.29609205 -290.09657493 845.57819398 -293.05810547 825.32958984 C-295.01400687 800.41194186 -285.07482984 774.64020187 -269.49560547 755.32958984 C-268.0327496 753.6485888 -266.55392152 751.98133018 -265.05810547 750.32958984 C-264.32849609 749.49298828 -263.59888672 748.65638672 -262.84716797 747.79443359 C-260.62180702 745.26845371 -258.35351339 742.79200714 -256.05810547 740.32958984 C-255.26533203 739.47107422 -254.47255859 738.61255859 -253.65576172 737.72802734 C-243.10404324 726.6928968 -227.87276849 716.66863023 -212.00636292 716.27923584 C-209.03223419 716.30441284 -209.03223419 716.30441284 -206.05810547 716.32958984 C-206.06032608 715.77282059 -206.06254669 715.21605133 -206.06483459 714.64241028 C-206.17414302 685.85268877 -206.07904864 657.10335255 -205.05810547 628.32958984 C-206.19977173 627.90419922 -206.19977173 627.90419922 -207.36450195 627.47021484 C-216.26500487 623.70123545 -219.63056664 615.72471235 -223.05810547 607.32958984 C-229.830662 589.49757259 -234.93382874 570.8831223 -239.58105469 552.40185547 C-244.63844963 532.31139028 -251.38907731 512.92426166 -258.41668701 493.45658875 C-262.90778657 481.00100332 -267.29610099 468.50963259 -271.68310547 456.01708984 C-272.49812705 453.69870143 -273.31323107 451.380342 -274.12841797 449.06201172 C-276.08149513 443.50677988 -278.0318817 437.95060771 -279.9815979 432.39419556 C-280.99925891 429.49711444 -282.01980254 426.60106669 -283.04125977 423.70532227 C-286.36659528 414.26565309 -289.5859834 404.80514456 -292.62060547 395.26708984 C-293.47729921 392.59216788 -294.33619388 389.9179532 -295.19482422 387.24365234 C-295.53281036 386.18973045 -295.53281036 386.18973045 -295.87762451 385.11451721 C-298.57641025 376.70320772 -301.30360281 368.30114469 -304.03598022 359.9006958 C-304.63555311 358.05704537 -305.23469245 356.21325388 -305.83340454 354.36932373 C-309.14077404 344.18517334 -312.4672478 334.00943157 -315.94302368 323.88128662 C-316.73916039 321.55410691 -317.52523772 319.22377228 -318.30810547 316.89208984 C-318.51175468 316.28626886 -318.7154039 315.68044788 -318.9252243 315.05626869 C-322.52881402 304.30069014 -325.83002163 293.49619345 -328.83935547 282.56005859 C-329.04976219 281.79971062 -329.26016891 281.03936264 -329.4769516 280.25597382 C-334.22873226 263.05776801 -338.5232678 245.75255955 -342.73913574 228.41656494 C-343.69586515 224.48691333 -344.65837391 220.55867838 -345.62060547 216.63037109 C-346.74231319 212.05012864 -347.86371881 207.46981572 -348.98217773 202.88877869 C-351.33847135 193.24096491 -353.72325079 183.60072901 -356.1506958 173.97052002 C-357.47181406 168.7207069 -358.74833132 163.46256314 -359.98318481 158.1917572 C-361.87201462 150.22581627 -364.27368653 142.94706922 -367.46044922 135.39990234 C-371.02691468 126.64163484 -373.40244959 117.39352117 -376.05810547 108.32958984 C-376.67767351 106.23447162 -377.29746596 104.13941974 -377.91748047 102.04443359 C-380.43541826 93.50014229 -382.92595799 84.96307908 -385.12060547 76.32958984 C-386.44440482 71.22188334 -388.12594779 66.41316308 -390.05810547 61.51708984 C-394.98401883 48.87164602 -399.68242469 33.00481074 -398.05810547 19.32958984 C-395.36235892 14.84538036 -392.00347246 12.00748222 -387.05810547 10.32958984 C-383.69833616 9.9443142 -380.36158622 9.70415293 -376.98388672 9.54052734 C-373.99623099 9.44629267 -373.99623099 9.44629267 -371.05810547 8.32958984 C-369.31291863 8.31377298 -367.56678146 8.36293103 -365.82373047 8.45068359 C-364.26114502 8.52343506 -364.26114502 8.52343506 -362.66699219 8.59765625 C-361.55855957 8.65356934 -360.45012695 8.70948242 -359.30810547 8.76708984 C-347.66866359 9.28855538 -336.13351418 9.75966037 -324.49951172 8.85302734 C-314.38219691 8.15541014 -304.2580365 8.01311156 -294.12060547 7.82958984 C-290.31973477 7.76065296 -286.51899332 7.68702493 -282.71826172 7.61083984 C-281.46904686 7.59047668 -281.46904686 7.59047668 -280.19459534 7.56970215 C-275.00925984 7.46542316 -269.8516036 7.19954279 -264.67651367 6.85473633 C-255.89285765 6.27394398 -247.10648403 5.98982197 -238.30829239 5.72940254 C-235.41814945 5.64346053 -232.52814765 5.55366362 -229.63815308 5.46287537 C-221.43227355 5.20552362 -213.2262583 4.95291361 -205.02001953 4.70727539 C-183.79853429 4.06988688 -162.6583335 3.36853787 -141.50170898 1.52542114 C-135.8417539 1.07183023 -130.17080688 0.91279007 -124.49560547 0.76708984 C-116.06729647 0.57152522 -116.06729647 0.57152522 -107.67529297 -0.16259766 C-101.38975629 -0.92878205 -95.06997435 -1.05067858 -88.74560547 -1.23291016 C-88.0476889 -1.25342438 -87.34977234 -1.2739386 -86.63070679 -1.29507446 C-57.73403219 -2.11780595 -28.82582147 -2.42172321 0 0 Z M-44.00775146 36.83355713 C-50.93525839 37.37690729 -57.80526186 37.44361512 -64.75073242 37.39550781 C-66.75174578 37.38833253 -68.75275915 37.38116164 -70.75377309 37.37415147 C-72.88166659 37.36581287 -75.0095357 37.35501172 -77.13741493 37.34362411 C-81.63148777 37.32017579 -86.12555676 37.30713853 -90.61967468 37.29592896 C-103.3932383 37.26283214 -116.16673438 37.22174356 -128.94018555 37.15820312 C-179.03305955 36.84401723 -179.03305955 36.84401723 -228.99596405 40.1220932 C-251.12477138 42.34873643 -273.19022761 43.64711231 -295.42828369 44.12176514 C-297.98092901 44.17625787 -300.5334737 44.23573136 -303.08587646 44.30059814 C-316.12760885 44.61806972 -328.59650065 44.62517959 -341.41552734 42.04638672 C-345.84774291 41.17420274 -350.17768503 40.79608371 -354.68310547 40.64208984 C-355.41271484 40.60792969 -356.14232422 40.57376953 -356.89404297 40.53857422 C-358.61498217 40.45932044 -360.33650189 40.39278795 -362.05810547 40.32958984 C-360.58829554 45.9332402 -358.74246963 51.15412173 -356.39064026 56.43553162 C-351.16876235 68.24629034 -347.56548468 80.34203965 -344.12060547 92.76708984 C-343.51378978 94.92191854 -342.90652461 97.07662071 -342.29882812 99.23120117 C-338.24458387 113.68575433 -334.42506861 128.19412947 -330.89819336 142.78637695 C-330.73543411 143.45943375 -330.57267487 144.13249054 -330.40498352 144.82594299 C-330.24668564 145.48070114 -330.08838776 146.13545929 -329.92529297 146.81005859 C-328.46931858 152.82036381 -326.81083901 158.74073963 -324.9921875 164.65112305 C-324.22039025 167.6905034 -323.6725815 170.60496209 -323.19262695 173.6965332 C-321.91582074 181.64518208 -319.95835034 189.41313795 -318.02294922 197.22021484 C-317.62114231 198.85270347 -317.21958237 200.4852529 -316.81825256 202.11785889 C-315.97646053 205.53764948 -315.13136559 208.95660232 -314.28393555 212.375 C-313.43317534 215.80785119 -312.58672882 219.24171213 -311.74487305 222.67675781 C-301.68125424 263.94411557 -301.68125424 263.94411557 -289.10830688 304.49850464 C-287.84496018 308.15847001 -286.61328621 311.82922027 -285.37451172 315.49755859 C-285.1111351 316.27488846 -284.84775848 317.05221832 -284.57640076 317.85310364 C-281.09809125 328.13258936 -277.73516834 338.44993712 -274.37060547 348.76708984 C-274.04745361 349.75636475 -273.72430176 350.74563965 -273.39135742 351.76489258 C-269.62631601 363.296455 -265.95126427 374.84516224 -262.43310547 386.45458984 C-258.4445828 399.5614977 -253.79113991 412.39875139 -249.08708191 425.26092529 C-248.67441826 426.38932831 -248.67441826 426.38932831 -248.25341797 427.54052734 C-247.97971878 428.2887677 -247.70601959 429.03700806 -247.42402649 429.80792236 C-244.43873169 437.99064132 -241.61267719 446.22564109 -238.79443359 454.46728516 C-236.12818443 462.25350553 -233.4066166 470.01782383 -230.6496582 477.7722168 C-228.85598709 482.81897365 -227.08029519 487.87200199 -225.30891418 492.92662048 C-224.08826637 496.40775818 -222.8612946 499.8862676 -221.61523438 503.35839844 C-214.76050381 522.48590727 -209.57753737 541.64425446 -205.40527344 561.54223633 C-205.21000565 562.44462036 -205.01473785 563.34700439 -204.81355286 564.2767334 C-204.44612138 565.97790187 -204.09259993 567.68215326 -203.75517273 569.38952637 C-202.90419739 573.68692733 -202.90419739 573.68692733 -200.09301758 576.84936523 C-197.68737283 577.41708008 -195.5209123 577.46641245 -193.05810547 577.32958984 C-190.12963472 572.35769728 -187.58338946 567.32366269 -185.18310547 562.07958984 C-182.95043843 557.25816606 -180.68217423 552.51647332 -178.05810547 547.89208984 C-175.01602143 542.47751092 -172.55476976 536.84542022 -170.12451172 531.13647461 C-167.91468053 526.0147782 -165.36556942 521.16831861 -162.66455078 516.28955078 C-159.75418857 510.9270536 -157.09270834 505.44474053 -154.43310547 499.95458984 C-153.98488937 499.0309816 -153.98488937 499.0309816 -153.52761841 498.0887146 C-148.28080255 487.24217051 -143.54026482 476.22950881 -139.05371094 465.04882812 C-136.6551321 459.08348162 -134.10060934 453.32106797 -131.16381836 447.6027832 C-129.48570058 444.15280427 -128.28693691 440.58297759 -127.05810547 436.95458984 C-122.35605368 423.66841819 -116.07491898 411.05536671 -110.05810547 398.32958984 C-103.86529795 385.19531655 -98.19760266 371.88508144 -92.68643188 358.45352173 C-86.0447719 342.27250298 -79.15607559 326.48634167 -70.76123047 311.12646484 C-58.04518228 287.70658406 -48.12506717 262.86438881 -38.35028076 238.10829163 C-29.56194221 215.88229645 -20.34202827 193.91079085 -10.05810547 172.32958984 C-9.27064941 170.66428223 -9.27064941 170.66428223 -8.46728516 168.96533203 C-1.92481129 155.14215889 4.85747769 141.47062733 11.89837646 127.8951416 C22.77659749 106.92054505 32.70909338 85.68220549 41.67236328 63.81005859 C43.98718942 58.17485763 46.42773761 52.59919946 48.96264648 47.05957031 C50.21272987 44.27541514 50.94189453 42.42471614 50.94189453 39.32958984 C28.93689181 34.53721176 4.44817123 36.23426959 -17.99560547 36.20458984 C-18.89629761 36.20200165 -19.79698975 36.19941345 -20.72497559 36.19674683 C-23.34517207 36.19080026 -25.96525132 36.19251343 -28.58544922 36.19677734 C-29.34822678 36.19479843 -30.11100433 36.19281952 -30.89689636 36.19078064 C-35.29538595 36.20898902 -39.62580158 36.446233 -44.00775146 36.83355713 Z " fill="#000000" transform="translate(2696.05810546875,1699.67041015625)"/>
<path d="M0 0 C6.93087561 0.57950465 13.86618489 1.10234859 20.80078125 1.63513184 C23.29723305 1.8280703 25.79340979 2.02427635 28.28955078 2.22119141 C36.25238412 2.84556746 44.21421776 3.42935506 52.18798828 3.89599609 C52.91955139 3.93916962 53.6511145 3.98234314 54.40484619 4.02682495 C57.82547195 4.22696027 61.24606698 4.41760896 64.66796875 4.59521484 C82.83862735 5.62068526 82.83862735 5.62068526 87.94189453 9.76708984 C91.93933184 14.88880639 91.93933184 14.88880639 91.95361328 17.34521484 C91.84662109 18.08255859 91.73962891 18.81990234 91.62939453 19.57958984 C91.51724609 20.37365234 91.40509766 21.16771484 91.28955078 21.98583984 C91.17482422 22.75927734 91.06009766 23.53271484 90.94189453 24.32958984 C90.81814453 25.56708984 90.69439453 26.80458984 90.56689453 28.07958984 C89.90476798 31.5226479 88.7495063 33.36428478 86.94189453 36.32958984 C86.21706033 37.97061448 85.53186139 39.62960877 84.88330078 41.30224609 C84.50359131 42.27000977 84.12388184 43.23777344 83.73266602 44.23486328 C83.32733643 45.27674805 82.92200684 46.31863281 82.50439453 47.39208984 C77.36839951 60.41465008 71.88271231 73.27087317 66.32324219 86.1171875 C65.08912292 88.98720187 63.87465789 91.86410305 62.67236328 94.74755859 C54.66015029 113.90527285 45.60593699 132.6405434 35.83398438 150.96142578 C20.19483564 180.35017649 6.51216393 210.46051891 -5.71452332 241.42692566 C-11.00157309 254.79309116 -16.49878811 268.07470661 -22.05810547 281.32958984 C-22.52587402 282.44736816 -22.99364258 283.56514648 -23.47558594 284.71679688 C-28.45697069 296.51943838 -33.8776645 308.05579521 -39.64013672 319.49365234 C-40.14294662 320.49251465 -40.64575653 321.49137695 -41.1638031 322.52050781 C-43.6864234 327.52338917 -46.22424549 332.51772688 -48.78637695 337.50048828 C-54.73396649 349.14995133 -59.8000625 360.85816154 -64.24555969 373.15763855 C-65.40826993 376.26558652 -66.72643972 379.29052366 -68.05810547 382.32958984 C-68.67897598 383.96919483 -69.28415758 385.61485996 -69.87060547 387.26708984 C-74.62111573 400.49481398 -79.69469175 413.55273349 -85.12060547 426.51708984 C-85.44247833 427.28773773 -85.7643512 428.05838562 -86.09597778 428.85238647 C-102.94422095 469.14710827 -102.94422095 469.14710827 -112.03466797 485.54443359 C-114.74968964 490.5155418 -117.13177649 495.65087953 -119.55810547 500.76708984 C-123.948836 510.013557 -128.4008659 519.21440264 -133.05810547 528.32958984 C-133.52974121 529.25497559 -134.00137695 530.18036133 -134.48730469 531.13378906 C-143.56308041 548.89787361 -153.00905853 566.28765381 -163.93310547 582.98583984 C-166.1540219 586.48051717 -168.21758811 590.03376143 -170.24560547 593.64208984 C-177.08419364 605.74953039 -177.08419364 605.74953039 -180.05810547 609.32958984 C-180.71810547 609.32958984 -181.37810547 609.32958984 -182.05810547 609.32958984 C-182.29271484 610.20099609 -182.52732422 611.07240234 -182.76904297 611.97021484 C-185.15109851 618.17799594 -190.32843387 624.42932538 -196.31982422 627.48193359 C-200.56216422 628.58898232 -205.24413503 629.18209185 -209.26904297 627.29052734 C-228.9772357 612.84733917 -233.98921955 574.63968045 -239.58105469 552.40185547 C-244.63844963 532.31139028 -251.38907731 512.92426166 -258.41668701 493.45658875 C-262.90778657 481.00100332 -267.29610099 468.50963259 -271.68310547 456.01708984 C-272.49812705 453.69870143 -273.31323107 451.380342 -274.12841797 449.06201172 C-276.08149513 443.50677988 -278.0318817 437.95060771 -279.9815979 432.39419556 C-280.99925891 429.49711444 -282.01980254 426.60106669 -283.04125977 423.70532227 C-286.36659528 414.26565309 -289.5859834 404.80514456 -292.62060547 395.26708984 C-293.47729921 392.59216788 -294.33619388 389.9179532 -295.19482422 387.24365234 C-295.53281036 386.18973045 -295.53281036 386.18973045 -295.87762451 385.11451721 C-298.57641025 376.70320772 -301.30360281 368.30114469 -304.03598022 359.9006958 C-304.63555311 358.05704537 -305.23469245 356.21325388 -305.83340454 354.36932373 C-309.14077404 344.18517334 -312.4672478 334.00943157 -315.94302368 323.88128662 C-316.73916039 321.55410691 -317.52523772 319.22377228 -318.30810547 316.89208984 C-318.51175468 316.28626886 -318.7154039 315.68044788 -318.9252243 315.05626869 C-322.52881402 304.30069014 -325.83002163 293.49619345 -328.83935547 282.56005859 C-329.04976219 281.79971062 -329.26016891 281.03936264 -329.4769516 280.25597382 C-334.22873226 263.05776801 -338.5232678 245.75255955 -342.73913574 228.41656494 C-343.69586515 224.48691333 -344.65837391 220.55867838 -345.62060547 216.63037109 C-346.74231319 212.05012864 -347.86371881 207.46981572 -348.98217773 202.88877869 C-351.33847135 193.24096491 -353.72325079 183.60072901 -356.1506958 173.97052002 C-357.47181406 168.7207069 -358.74833132 163.46256314 -359.98318481 158.1917572 C-361.87201462 150.22581627 -364.27368653 142.94706922 -367.46044922 135.39990234 C-371.02691468 126.64163484 -373.40244959 117.39352117 -376.05810547 108.32958984 C-376.67767351 106.23447162 -377.29746596 104.13941974 -377.91748047 102.04443359 C-380.43541826 93.50014229 -382.92595799 84.96307908 -385.12060547 76.32958984 C-386.44440482 71.22188334 -388.12594779 66.41316308 -390.05810547 61.51708984 C-394.98401883 48.87164602 -399.68242469 33.00481074 -398.05810547 19.32958984 C-395.36235892 14.84538036 -392.00347246 12.00748222 -387.05810547 10.32958984 C-383.69833616 9.9443142 -380.36158622 9.70415293 -376.98388672 9.54052734 C-373.99623099 9.44629267 -373.99623099 9.44629267 -371.05810547 8.32958984 C-369.31291863 8.31377298 -367.56678146 8.36293103 -365.82373047 8.45068359 C-364.26114502 8.52343506 -364.26114502 8.52343506 -362.66699219 8.59765625 C-361.55855957 8.65356934 -360.45012695 8.70948242 -359.30810547 8.76708984 C-347.66866359 9.28855538 -336.13351418 9.75966037 -324.49951172 8.85302734 C-314.38219691 8.15541014 -304.2580365 8.01311156 -294.12060547 7.82958984 C-290.31973477 7.76065296 -286.51899332 7.68702493 -282.71826172 7.61083984 C-281.46904686 7.59047668 -281.46904686 7.59047668 -280.19459534 7.56970215 C-275.00925984 7.46542316 -269.8516036 7.19954279 -264.67651367 6.85473633 C-255.89285765 6.27394398 -247.10648403 5.98982197 -238.30829239 5.72940254 C-235.41814945 5.64346053 -232.52814765 5.55366362 -229.63815308 5.46287537 C-221.43227355 5.20552362 -213.2262583 4.95291361 -205.02001953 4.70727539 C-183.79853429 4.06988688 -162.6583335 3.36853787 -141.50170898 1.52542114 C-135.8417539 1.07183023 -130.17080688 0.91279007 -124.49560547 0.76708984 C-116.06729647 0.57152522 -116.06729647 0.57152522 -107.67529297 -0.16259766 C-101.38975629 -0.92878205 -95.06997435 -1.05067858 -88.74560547 -1.23291016 C-88.0476889 -1.25342438 -87.34977234 -1.2739386 -86.63070679 -1.29507446 C-57.73403219 -2.11780595 -28.82582147 -2.42172321 0 0 Z M-44.00775146 36.83355713 C-50.93525839 37.37690729 -57.80526186 37.44361512 -64.75073242 37.39550781 C-66.75174578 37.38833253 -68.75275915 37.38116164 -70.75377309 37.37415147 C-72.88166659 37.36581287 -75.0095357 37.35501172 -77.13741493 37.34362411 C-81.63148777 37.32017579 -86.12555676 37.30713853 -90.61967468 37.29592896 C-103.3932383 37.26283214 -116.16673438 37.22174356 -128.94018555 37.15820312 C-179.03305955 36.84401723 -179.03305955 36.84401723 -228.99596405 40.1220932 C-251.12477138 42.34873643 -273.19022761 43.64711231 -295.42828369 44.12176514 C-297.98092901 44.17625787 -300.5334737 44.23573136 -303.08587646 44.30059814 C-316.12760885 44.61806972 -328.59650065 44.62517959 -341.41552734 42.04638672 C-345.84774291 41.17420274 -350.17768503 40.79608371 -354.68310547 40.64208984 C-355.41271484 40.60792969 -356.14232422 40.57376953 -356.89404297 40.53857422 C-358.61498217 40.45932044 -360.33650189 40.39278795 -362.05810547 40.32958984 C-360.58829554 45.9332402 -358.74246963 51.15412173 -356.39064026 56.43553162 C-351.16876235 68.24629034 -347.56548468 80.34203965 -344.12060547 92.76708984 C-343.51378978 94.92191854 -342.90652461 97.07662071 -342.29882812 99.23120117 C-338.24458387 113.68575433 -334.42506861 128.19412947 -330.89819336 142.78637695 C-330.73543411 143.45943375 -330.57267487 144.13249054 -330.40498352 144.82594299 C-330.24668564 145.48070114 -330.08838776 146.13545929 -329.92529297 146.81005859 C-328.46931858 152.82036381 -326.81083901 158.74073963 -324.9921875 164.65112305 C-324.22039025 167.6905034 -323.6725815 170.60496209 -323.19262695 173.6965332 C-321.91582074 181.64518208 -319.95835034 189.41313795 -318.02294922 197.22021484 C-317.62114231 198.85270347 -317.21958237 200.4852529 -316.81825256 202.11785889 C-315.97646053 205.53764948 -315.13136559 208.95660232 -314.28393555 212.375 C-313.43317534 215.80785119 -312.58672882 219.24171213 -311.74487305 222.67675781 C-301.68125424 263.94411557 -301.68125424 263.94411557 -289.10830688 304.49850464 C-287.84496018 308.15847001 -286.61328621 311.82922027 -285.37451172 315.49755859 C-285.1111351 316.27488846 -284.84775848 317.05221832 -284.57640076 317.85310364 C-281.09809125 328.13258936 -277.73516834 338.44993712 -274.37060547 348.76708984 C-274.04745361 349.75636475 -273.72430176 350.74563965 -273.39135742 351.76489258 C-269.62631601 363.296455 -265.95126427 374.84516224 -262.43310547 386.45458984 C-258.4445828 399.5614977 -253.79113991 412.39875139 -249.08708191 425.26092529 C-248.67441826 426.38932831 -248.67441826 426.38932831 -248.25341797 427.54052734 C-247.97971878 428.2887677 -247.70601959 429.03700806 -247.42402649 429.80792236 C-244.43873169 437.99064132 -241.61267719 446.22564109 -238.79443359 454.46728516 C-236.12818443 462.25350553 -233.4066166 470.01782383 -230.6496582 477.7722168 C-228.85598709 482.81897365 -227.08029519 487.87200199 -225.30891418 492.92662048 C-224.08826637 496.40775818 -222.8612946 499.8862676 -221.61523438 503.35839844 C-214.76050381 522.48590727 -209.57753737 541.64425446 -205.40527344 561.54223633 C-205.21000565 562.44462036 -205.01473785 563.34700439 -204.81355286 564.2767334 C-204.44612138 565.97790187 -204.09259993 567.68215326 -203.75517273 569.38952637 C-202.90419739 573.68692733 -202.90419739 573.68692733 -200.09301758 576.84936523 C-197.68737283 577.41708008 -195.5209123 577.46641245 -193.05810547 577.32958984 C-190.12963472 572.35769728 -187.58338946 567.32366269 -185.18310547 562.07958984 C-182.95043843 557.25816606 -180.68217423 552.51647332 -178.05810547 547.89208984 C-175.01602143 542.47751092 -172.55476976 536.84542022 -170.12451172 531.13647461 C-167.91468053 526.0147782 -165.36556942 521.16831861 -162.66455078 516.28955078 C-159.75418857 510.9270536 -157.09270834 505.44474053 -154.43310547 499.95458984 C-153.98488937 499.0309816 -153.98488937 499.0309816 -153.52761841 498.0887146 C-148.28080255 487.24217051 -143.54026482 476.22950881 -139.05371094 465.04882812 C-136.6551321 459.08348162 -134.10060934 453.32106797 -131.16381836 447.6027832 C-129.48570058 444.15280427 -128.28693691 440.58297759 -127.05810547 436.95458984 C-122.35605368 423.66841819 -116.07491898 411.05536671 -110.05810547 398.32958984 C-103.86529795 385.19531655 -98.19760266 371.88508144 -92.68643188 358.45352173 C-86.0447719 342.27250298 -79.15607559 326.48634167 -70.76123047 311.12646484 C-58.04518228 287.70658406 -48.12506717 262.86438881 -38.35028076 238.10829163 C-29.56194221 215.88229645 -20.34202827 193.91079085 -10.05810547 172.32958984 C-9.27064941 170.66428223 -9.27064941 170.66428223 -8.46728516 168.96533203 C-1.92481129 155.14215889 4.85747769 141.47062733 11.89837646 127.8951416 C22.77659749 106.92054505 32.70909338 85.68220549 41.67236328 63.81005859 C43.98718942 58.17485763 46.42773761 52.59919946 48.96264648 47.05957031 C50.21272987 44.27541514 50.94189453 42.42471614 50.94189453 39.32958984 C28.93689181 34.53721176 4.44817123 36.23426959 -17.99560547 36.20458984 C-18.89629761 36.20200165 -19.79698975 36.19941345 -20.72497559 36.19674683 C-23.34517207 36.19080026 -25.96525132 36.19251343 -28.58544922 36.19677734 C-29.34822678 36.19479843 -30.11100433 36.19281952 -30.89689636 36.19078064 C-35.29538595 36.20898902 -39.62580158 36.446233 -44.00775146 36.83355713 Z " fill="#000000" transform="translate(2699.05810546875,2740.67041015625)"/>
<path d="M0 0 C6.93087561 0.57950465 13.86618489 1.10234859 20.80078125 1.63513184 C23.29723305 1.8280703 25.79340979 2.02427635 28.28955078 2.22119141 C36.25238412 2.84556746 44.21421776 3.42935506 52.18798828 3.89599609 C52.91955139 3.93916962 53.6511145 3.98234314 54.40484619 4.02682495 C57.82547195 4.22696027 61.24606698 4.41760896 64.66796875 4.59521484 C82.83862735 5.62068526 82.83862735 5.62068526 87.94189453 9.76708984 C91.93933184 14.88880639 91.93933184 14.88880639 91.95361328 17.34521484 C91.84662109 18.08255859 91.73962891 18.81990234 91.62939453 19.57958984 C91.51724609 20.37365234 91.40509766 21.16771484 91.28955078 21.98583984 C91.17482422 22.75927734 91.06009766 23.53271484 90.94189453 24.32958984 C90.81814453 25.56708984 90.69439453 26.80458984 90.56689453 28.07958984 C89.90476798 31.5226479 88.7495063 33.36428478 86.94189453 36.32958984 C86.21706033 37.97061448 85.53186139 39.62960877 84.88330078 41.30224609 C84.50359131 42.27000977 84.12388184 43.23777344 83.73266602 44.23486328 C83.32733643 45.27674805 82.92200684 46.31863281 82.50439453 47.39208984 C77.36839951 60.41465008 71.88271231 73.27087317 66.32324219 86.1171875 C65.08912292 88.98720187 63.87465789 91.86410305 62.67236328 94.74755859 C54.66015029 113.90527285 45.60593699 132.6405434 35.83398438 150.96142578 C20.19483564 180.35017649 6.51216393 210.46051891 -5.71452332 241.42692566 C-11.00157309 254.79309116 -16.49878811 268.07470661 -22.05810547 281.32958984 C-22.52587402 282.44736816 -22.99364258 283.56514648 -23.47558594 284.71679688 C-28.45697069 296.51943838 -33.8776645 308.05579521 -39.64013672 319.49365234 C-40.14294662 320.49251465 -40.64575653 321.49137695 -41.1638031 322.52050781 C-43.6864234 327.52338917 -46.22424549 332.51772688 -48.78637695 337.50048828 C-54.73396649 349.14995133 -59.8000625 360.85816154 -64.24555969 373.15763855 C-65.40826993 376.26558652 -66.72643972 379.29052366 -68.05810547 382.32958984 C-68.67897598 383.96919483 -69.28415758 385.61485996 -69.87060547 387.26708984 C-74.62111573 400.49481398 -79.69469175 413.55273349 -85.12060547 426.51708984 C-85.44247833 427.28773773 -85.7643512 428.05838562 -86.09597778 428.85238647 C-102.94422095 469.14710827 -102.94422095 469.14710827 -112.03466797 485.54443359 C-114.74968964 490.5155418 -117.13177649 495.65087953 -119.55810547 500.76708984 C-123.948836 510.013557 -128.4008659 519.21440264 -133.05810547 528.32958984 C-133.52974121 529.25497559 -134.00137695 530.18036133 -134.48730469 531.13378906 C-143.56308041 548.89787361 -153.00905853 566.28765381 -163.93310547 582.98583984 C-166.1540219 586.48051717 -168.21758811 590.03376143 -170.24560547 593.64208984 C-177.08419364 605.74953039 -177.08419364 605.74953039 -180.05810547 609.32958984 C-180.71810547 609.32958984 -181.37810547 609.32958984 -182.05810547 609.32958984 C-182.29271484 610.20099609 -182.52732422 611.07240234 -182.76904297 611.97021484 C-185.15109851 618.17799594 -190.32843387 624.42932538 -196.31982422 627.48193359 C-200.56216422 628.58898232 -205.24413503 629.18209185 -209.26904297 627.29052734 C-228.9772357 612.84733917 -233.98921955 574.63968045 -239.58105469 552.40185547 C-244.63844963 532.31139028 -251.38907731 512.92426166 -258.41668701 493.45658875 C-262.90778657 481.00100332 -267.29610099 468.50963259 -271.68310547 456.01708984 C-272.49812705 453.69870143 -273.31323107 451.380342 -274.12841797 449.06201172 C-276.08149513 443.50677988 -278.0318817 437.95060771 -279.9815979 432.39419556 C-280.99925891 429.49711444 -282.01980254 426.60106669 -283.04125977 423.70532227 C-286.36659528 414.26565309 -289.5859834 404.80514456 -292.62060547 395.26708984 C-293.47729921 392.59216788 -294.33619388 389.9179532 -295.19482422 387.24365234 C-295.53281036 386.18973045 -295.53281036 386.18973045 -295.87762451 385.11451721 C-298.57641025 376.70320772 -301.30360281 368.30114469 -304.03598022 359.9006958 C-304.63555311 358.05704537 -305.23469245 356.21325388 -305.83340454 354.36932373 C-309.14077404 344.18517334 -312.4672478 334.00943157 -315.94302368 323.88128662 C-316.73916039 321.55410691 -317.52523772 319.22377228 -318.30810547 316.89208984 C-318.51175468 316.28626886 -318.7154039 315.68044788 -318.9252243 315.05626869 C-322.52881402 304.30069014 -325.83002163 293.49619345 -328.83935547 282.56005859 C-329.04976219 281.79971062 -329.26016891 281.03936264 -329.4769516 280.25597382 C-334.22873226 263.05776801 -338.5232678 245.75255955 -342.73913574 228.41656494 C-343.69586515 224.48691333 -344.65837391 220.55867838 -345.62060547 216.63037109 C-346.74231319 212.05012864 -347.86371881 207.46981572 -348.98217773 202.88877869 C-351.33847135 193.24096491 -353.72325079 183.60072901 -356.1506958 173.97052002 C-357.47181406 168.7207069 -358.74833132 163.46256314 -359.98318481 158.1917572 C-361.87201462 150.22581627 -364.27368653 142.94706922 -367.46044922 135.39990234 C-371.02691468 126.64163484 -373.40244959 117.39352117 -376.05810547 108.32958984 C-376.67767351 106.23447162 -377.29746596 104.13941974 -377.91748047 102.04443359 C-380.43541826 93.50014229 -382.92595799 84.96307908 -385.12060547 76.32958984 C-386.44440482 71.22188334 -388.12594779 66.41316308 -390.05810547 61.51708984 C-394.98401883 48.87164602 -399.68242469 33.00481074 -398.05810547 19.32958984 C-395.36235892 14.84538036 -392.00347246 12.00748222 -387.05810547 10.32958984 C-383.69833616 9.9443142 -380.36158622 9.70415293 -376.98388672 9.54052734 C-373.99623099 9.44629267 -373.99623099 9.44629267 -371.05810547 8.32958984 C-369.31291863 8.31377298 -367.56678146 8.36293103 -365.82373047 8.45068359 C-364.26114502 8.52343506 -364.26114502 8.52343506 -362.66699219 8.59765625 C-361.55855957 8.65356934 -360.45012695 8.70948242 -359.30810547 8.76708984 C-347.66866359 9.28855538 -336.13351418 9.75966037 -324.49951172 8.85302734 C-314.38219691 8.15541014 -304.2580365 8.01311156 -294.12060547 7.82958984 C-290.31973477 7.76065296 -286.51899332 7.68702493 -282.71826172 7.61083984 C-281.46904686 7.59047668 -281.46904686 7.59047668 -280.19459534 7.56970215 C-275.00925984 7.46542316 -269.8516036 7.19954279 -264.67651367 6.85473633 C-255.89285765 6.27394398 -247.10648403 5.98982197 -238.30829239 5.72940254 C-235.41814945 5.64346053 -232.52814765 5.55366362 -229.63815308 5.46287537 C-221.43227355 5.20552362 -213.2262583 4.95291361 -205.02001953 4.70727539 C-183.79853429 4.06988688 -162.6583335 3.36853787 -141.50170898 1.52542114 C-135.8417539 1.07183023 -130.17080688 0.91279007 -124.49560547 0.76708984 C-116.06729647 0.57152522 -116.06729647 0.57152522 -107.67529297 -0.16259766 C-101.38975629 -0.92878205 -95.06997435 -1.05067858 -88.74560547 -1.23291016 C-88.0476889 -1.25342438 -87.34977234 -1.2739386 -86.63070679 -1.29507446 C-57.73403219 -2.11780595 -28.82582147 -2.42172321 0 0 Z M-44.00775146 36.83355713 C-50.93525839 37.37690729 -57.80526186 37.44361512 -64.75073242 37.39550781 C-66.75174578 37.38833253 -68.75275915 37.38116164 -70.75377309 37.37415147 C-72.88166659 37.36581287 -75.0095357 37.35501172 -77.13741493 37.34362411 C-81.63148777 37.32017579 -86.12555676 37.30713853 -90.61967468 37.29592896 C-103.3932383 37.26283214 -116.16673438 37.22174356 -128.94018555 37.15820312 C-179.03305955 36.84401723 -179.03305955 36.84401723 -228.99596405 40.1220932 C-251.12477138 42.34873643 -273.19022761 43.64711231 -295.42828369 44.12176514 C-297.98092901 44.17625787 -300.5334737 44.23573136 -303.08587646 44.30059814 C-316.12760885 44.61806972 -328.59650065 44.62517959 -341.41552734 42.04638672 C-345.84774291 41.17420274 -350.17768503 40.79608371 -354.68310547 40.64208984 C-355.41271484 40.60792969 -356.14232422 40.57376953 -356.89404297 40.53857422 C-358.61498217 40.45932044 -360.33650189 40.39278795 -362.05810547 40.32958984 C-360.58829554 45.9332402 -358.74246963 51.15412173 -356.39064026 56.43553162 C-351.16876235 68.24629034 -347.56548468 80.34203965 -344.12060547 92.76708984 C-343.51378978 94.92191854 -342.90652461 97.07662071 -342.29882812 99.23120117 C-338.24458387 113.68575433 -334.42506861 128.19412947 -330.89819336 142.78637695 C-330.73543411 143.45943375 -330.57267487 144.13249054 -330.40498352 144.82594299 C-330.24668564 145.48070114 -330.08838776 146.13545929 -329.92529297 146.81005859 C-328.46931858 152.82036381 -326.81083901 158.74073963 -324.9921875 164.65112305 C-324.22039025 167.6905034 -323.6725815 170.60496209 -323.19262695 173.6965332 C-321.91582074 181.64518208 -319.95835034 189.41313795 -318.02294922 197.22021484 C-317.62114231 198.85270347 -317.21958237 200.4852529 -316.81825256 202.11785889 C-315.97646053 205.53764948 -315.13136559 208.95660232 -314.28393555 212.375 C-313.43317534 215.80785119 -312.58672882 219.24171213 -311.74487305 222.67675781 C-301.68125424 263.94411557 -301.68125424 263.94411557 -289.10830688 304.49850464 C-287.84496018 308.15847001 -286.61328621 311.82922027 -285.37451172 315.49755859 C-285.1111351 316.27488846 -284.84775848 317.05221832 -284.57640076 317.85310364 C-281.09809125 328.13258936 -277.73516834 338.44993712 -274.37060547 348.76708984 C-274.04745361 349.75636475 -273.72430176 350.74563965 -273.39135742 351.76489258 C-269.62631601 363.296455 -265.95126427 374.84516224 -262.43310547 386.45458984 C-258.4445828 399.5614977 -253.79113991 412.39875139 -249.08708191 425.26092529 C-248.67441826 426.38932831 -248.67441826 426.38932831 -248.25341797 427.54052734 C-247.97971878 428.2887677 -247.70601959 429.03700806 -247.42402649 429.80792236 C-244.43873169 437.99064132 -241.61267719 446.22564109 -238.79443359 454.46728516 C-236.12818443 462.25350553 -233.4066166 470.01782383 -230.6496582 477.7722168 C-228.85598709 482.81897365 -227.08029519 487.87200199 -225.30891418 492.92662048 C-224.08826637 496.40775818 -222.8612946 499.8862676 -221.61523438 503.35839844 C-214.76050381 522.48590727 -209.57753737 541.64425446 -205.40527344 561.54223633 C-205.21000565 562.44462036 -205.01473785 563.34700439 -204.81355286 564.2767334 C-204.44612138 565.97790187 -204.09259993 567.68215326 -203.75517273 569.38952637 C-202.90419739 573.68692733 -202.90419739 573.68692733 -200.09301758 576.84936523 C-197.68737283 577.41708008 -195.5209123 577.46641245 -193.05810547 577.32958984 C-190.12963472 572.35769728 -187.58338946 567.32366269 -185.18310547 562.07958984 C-182.95043843 557.25816606 -180.68217423 552.51647332 -178.05810547 547.89208984 C-175.01602143 542.47751092 -172.55476976 536.84542022 -170.12451172 531.13647461 C-167.91468053 526.0147782 -165.36556942 521.16831861 -162.66455078 516.28955078 C-159.75418857 510.9270536 -157.09270834 505.44474053 -154.43310547 499.95458984 C-153.98488937 499.0309816 -153.98488937 499.0309816 -153.52761841 498.0887146 C-148.28080255 487.24217051 -143.54026482 476.22950881 -139.05371094 465.04882812 C-136.6551321 459.08348162 -134.10060934 453.32106797 -131.16381836 447.6027832 C-129.48570058 444.15280427 -128.28693691 440.58297759 -127.05810547 436.95458984 C-122.35605368 423.66841819 -116.07491898 411.05536671 -110.05810547 398.32958984 C-103.86529795 385.19531655 -98.19760266 371.88508144 -92.68643188 358.45352173 C-86.0447719 342.27250298 -79.15607559 326.48634167 -70.76123047 311.12646484 C-58.04518228 287.70658406 -48.12506717 262.86438881 -38.35028076 238.10829163 C-29.56194221 215.88229645 -20.34202827 193.91079085 -10.05810547 172.32958984 C-9.27064941 170.66428223 -9.27064941 170.66428223 -8.46728516 168.96533203 C-1.92481129 155.14215889 4.85747769 141.47062733 11.89837646 127.8951416 C22.77659749 106.92054505 32.70909338 85.68220549 41.67236328 63.81005859 C43.98718942 58.17485763 46.42773761 52.59919946 48.96264648 47.05957031 C50.21272987 44.27541514 50.94189453 42.42471614 50.94189453 39.32958984 C28.93689181 34.53721176 4.44817123 36.23426959 -17.99560547 36.20458984 C-18.89629761 36.20200165 -19.79698975 36.19941345 -20.72497559 36.19674683 C-23.34517207 36.19080026 -25.96525132 36.19251343 -28.58544922 36.19677734 C-29.34822678 36.19479843 -30.11100433 36.19281952 -30.89689636 36.19078064 C-35.29538595 36.20898902 -39.62580158 36.446233 -44.00775146 36.83355713 Z " fill="#000000" transform="translate(2139.05810546875,2740.67041015625)"/>
<path d="M0 0 C1.48511901 1.24292218 2.96406613 2.49324758 4.4375 3.75 C6.48592215 5.12536916 8.54921121 6.47879295 10.625 7.8125 C17.69142287 12.52043647 23.32941826 17.41575929 28.8203125 23.8828125 C30.52371553 25.90248151 30.52371553 25.90248151 32.9375 28.1875 C43.90530531 39.42950044 52.18857866 52.34903588 55.4375 67.75 C55.66050781 68.71164063 55.88351563 69.67328125 56.11328125 70.6640625 C59.79892781 88.86664349 57.70291067 107.09515079 48.16015625 123.203125 C33.30496596 145.16590067 9.14578268 164.32900678 -16.8125 171.359375 C-44.43585774 175.28314741 -72.4921769 168.34799372 -94.96972656 152.00878906 C-111.13375001 139.71650221 -122.60096946 121.99860414 -125.5625 101.75 C-127.5184014 76.83235202 -117.57922437 51.06061203 -102 31.75 C-100.53714413 30.06899896 -99.05831605 28.40174034 -97.5625 26.75 C-96.83289062 25.91339844 -96.10328125 25.07679688 -95.3515625 24.21484375 C-93.12620155 21.68886387 -90.85790792 19.21241729 -88.5625 16.75 C-87.76972656 15.89148437 -86.97695312 15.03296875 -86.16015625 14.1484375 C-66.3922324 -6.52512583 -25.61923536 -17.91296937 0 0 Z " fill="#000000" transform="translate(2531.5625,3464.25)"/>
<path d="M0 0 C1.48511901 1.24292218 2.96406613 2.49324758 4.4375 3.75 C6.48592215 5.12536916 8.54921121 6.47879295 10.625 7.8125 C17.69142287 12.52043647 23.32941826 17.41575929 28.8203125 23.8828125 C30.52371553 25.90248151 30.52371553 25.90248151 32.9375 28.1875 C43.90530531 39.42950044 52.18857866 52.34903588 55.4375 67.75 C55.66050781 68.71164063 55.88351562 69.67328125 56.11328125 70.6640625 C59.79892781 88.86664349 57.70291067 107.09515079 48.16015625 123.203125 C33.30496596 145.16590067 9.14578268 164.32900678 -16.8125 171.359375 C-44.43585774 175.28314741 -72.4921769 168.34799372 -94.96972656 152.00878906 C-111.13375001 139.71650221 -122.60096946 121.99860414 -125.5625 101.75 C-127.5184014 76.83235202 -117.57922437 51.06061203 -102 31.75 C-100.53714413 30.06899896 -99.05831605 28.40174034 -97.5625 26.75 C-96.83289062 25.91339844 -96.10328125 25.07679688 -95.3515625 24.21484375 C-93.12620155 21.68886387 -90.85790792 19.21241729 -88.5625 16.75 C-87.76972656 15.89148437 -86.97695312 15.03296875 -86.16015625 14.1484375 C-66.3922324 -6.52512583 -25.61923536 -17.91296937 0 0 Z " fill="#000000" transform="translate(1971.5625,3464.25)"/>
<path d="M0 0 C0 0.66 0 1.32 0 2 C0.99 2 1.98 2 3 2 C3 1.34 3 0.68 3 0 C17.42836281 -0.3662021 31.78859309 1.4373294 43 11 C45.04842215 12.37536916 47.11171121 13.72879295 49.1875 15.0625 C56.25392287 19.77043647 61.89191826 24.66575929 67.3828125 31.1328125 C69.08621553 33.15248151 69.08621553 33.15248151 71.5 35.4375 C82.46780531 46.67950044 90.75107866 59.59903588 94 75 C94.22300781 75.96164063 94.44601562 76.92328125 94.67578125 77.9140625 C98.36142781 96.11664349 96.26541067 114.34515079 86.72265625 130.453125 C71.86746596 152.41590067 47.70828268 171.57900678 21.75 178.609375 C-5.87335774 182.53314741 -33.9296769 175.59799372 -56.40722656 159.25878906 C-72.57125001 146.96650221 -84.03846946 129.24860414 -87 109 C-88.9559014 84.08235202 -79.01672437 58.31061203 -63.4375 39 C-61.97464413 37.31899896 -60.49581605 35.65174034 -59 34 C-58.27039062 33.16339844 -57.54078125 32.32679688 -56.7890625 31.46484375 C-54.56370155 28.93886387 -52.29540792 26.46241729 -50 24 C-49.20722656 23.14148437 -48.41445312 22.28296875 -47.59765625 21.3984375 C-35.27078993 8.50683323 -18.31559183 -1.05666876 0 0 Z " fill="#000000" transform="translate(1930,2416)"/>
<path d="M0 0 C0 0.99 0 1.98 0 3 C0.33 2.505 0.66 2.01 1 1.5 C5.02991128 -1.52243346 11.25327286 -0.04255121 16.0234375 0.62890625 C26.32267609 2.33258269 33.92137541 4.10940844 42 11 C44.04842215 12.37536916 46.11171121 13.72879295 48.1875 15.0625 C55.25392287 19.77043647 60.89191826 24.66575929 66.3828125 31.1328125 C68.08621553 33.15248151 68.08621553 33.15248151 70.5 35.4375 C81.46780531 46.67950044 89.75107866 59.59903588 93 75 C93.22300781 75.96164063 93.44601563 76.92328125 93.67578125 77.9140625 C97.36142781 96.11664349 95.26541067 114.34515079 85.72265625 130.453125 C70.86746596 152.41590067 46.70828268 171.57900678 20.75 178.609375 C-6.87335774 182.53314741 -34.9296769 175.59799372 -57.40722656 159.25878906 C-73.57125001 146.96650221 -85.03846946 129.24860414 -88 109 C-89.9559014 84.08235202 -80.01672437 58.31061203 -64.4375 39 C-62.97464413 37.31899896 -61.49581605 35.65174034 -60 34 C-59.27039062 33.16339844 -58.54078125 32.32679688 -57.7890625 31.46484375 C-55.56370155 28.93886387 -53.29540792 26.46241729 -51 24 C-50.20722656 23.14148437 -49.41445312 22.28296875 -48.59765625 21.3984375 C-35.79672359 8.01104821 -18.86117929 -0.94305896 0 0 Z " fill="#000000" transform="translate(2491,2416)"/>
<path d="M0 0 C8.35808851 7.68377636 15.43113384 15.58852604 21.18847656 25.41162109 C21.72730469 26.25337891 22.26613281 27.09513672 22.82128906 27.96240234 C25.02930061 31.91789731 25.52669548 35.97088447 26.18847656 40.41162109 C26.33671875 41.37841797 26.48496094 42.34521484 26.63769531 43.34130859 C27.52234215 50.6658039 26.81710085 56.52064586 24.18847656 63.41162109 C23.91648437 64.13607422 23.64449219 64.86052734 23.36425781 65.60693359 C15.35142716 82.77276053 -4.34449386 93.98687346 -20.81152344 101.41162109 C-25.33957624 102.92097203 -29.70842531 102.32530141 -34.43652344 102.09912109 C-35.87705078 102.04594727 -35.87705078 102.04594727 -37.34667969 101.99169922 C-46.67155768 101.56784113 -54.50296833 100.02671072 -62.81152344 95.72412109 C-63.50431396 95.36962891 -64.19710449 95.01513672 -64.91088867 94.64990234 C-78.63291416 87.44893313 -87.39202486 78.03882963 -92.81152344 63.41162109 C-96.69914954 50.57593939 -90.17538973 36.28901412 -84.39746094 24.99755859 C-80.66563413 18.12974287 -75.95567275 12.25998671 -70.81152344 6.41162109 C-70.34423828 5.8636084 -69.87695312 5.3155957 -69.39550781 4.75097656 C-60.99716321 -5.09646001 -52.5996338 -13.1258887 -39.13183594 -14.48291016 C-24.42463732 -15.15141918 -11.04205516 -9.68188825 0 0 Z " fill="#8FCB5F" transform="translate(2530.8115234375,3502.58837890625)"/>
<path d="M0 0 C8.35808851 7.68377636 15.43113384 15.58852604 21.18847656 25.41162109 C21.72730469 26.25337891 22.26613281 27.09513672 22.82128906 27.96240234 C25.02930061 31.91789731 25.52669548 35.97088447 26.18847656 40.41162109 C26.33671875 41.37841797 26.48496094 42.34521484 26.63769531 43.34130859 C27.52234215 50.6658039 26.81710085 56.52064586 24.18847656 63.41162109 C23.91648437 64.13607422 23.64449219 64.86052734 23.36425781 65.60693359 C15.35142716 82.77276053 -4.34449386 93.98687346 -20.81152344 101.41162109 C-25.33957624 102.92097203 -29.70842531 102.32530141 -34.43652344 102.09912109 C-35.87705078 102.04594727 -35.87705078 102.04594727 -37.34667969 101.99169922 C-46.67155768 101.56784113 -54.50296833 100.02671072 -62.81152344 95.72412109 C-63.50431396 95.36962891 -64.19710449 95.01513672 -64.91088867 94.64990234 C-78.63291416 87.44893313 -87.39202486 78.03882963 -92.81152344 63.41162109 C-96.69914954 50.57593939 -90.17538973 36.28901412 -84.39746094 24.99755859 C-80.66563413 18.12974287 -75.95567275 12.25998671 -70.81152344 6.41162109 C-70.34423828 5.8636084 -69.87695312 5.3155957 -69.39550781 4.75097656 C-60.99716321 -5.09646001 -52.5996338 -13.1258887 -39.13183594 -14.48291016 C-24.42463732 -15.15141918 -11.04205516 -9.68188825 0 0 Z " fill="#FF0E00" transform="translate(1970.8115234375,3502.58837890625)"/>
<path d="M0 0 C8.35808851 7.68377636 15.43113384 15.58852604 21.18847656 25.41162109 C21.72730469 26.25337891 22.26613281 27.09513672 22.82128906 27.96240234 C25.02930061 31.91789731 25.52669548 35.97088447 26.18847656 40.41162109 C26.33671875 41.37841797 26.48496094 42.34521484 26.63769531 43.34130859 C27.52234215 50.6658039 26.81710085 56.52064586 24.18847656 63.41162109 C23.91648437 64.13607422 23.64449219 64.86052734 23.36425781 65.60693359 C15.35142716 82.77276053 -4.34449386 93.98687346 -20.81152344 101.41162109 C-25.33957624 102.92097203 -29.70842531 102.32530141 -34.43652344 102.09912109 C-35.87705078 102.04594727 -35.87705078 102.04594727 -37.34667969 101.99169922 C-46.67155768 101.56784113 -54.50296833 100.02671072 -62.81152344 95.72412109 C-63.50431396 95.36962891 -64.19710449 95.01513672 -64.91088867 94.64990234 C-78.63291416 87.44893313 -87.39202486 78.03882963 -92.81152344 63.41162109 C-96.69914954 50.57593939 -90.17538973 36.28901412 -84.39746094 24.99755859 C-80.66563413 18.12974287 -75.95567275 12.25998671 -70.81152344 6.41162109 C-70.34423828 5.8636084 -69.87695312 5.3155957 -69.39550781 4.75097656 C-60.99716321 -5.09646001 -52.5996338 -13.1258887 -39.13183594 -14.48291016 C-24.42463732 -15.15141918 -11.04205516 -9.68188825 0 0 Z " fill="#8FCB5F" transform="translate(2527.8115234375,2461.58837890625)"/>
<path d="M0 0 C8.35808851 7.68377636 15.43113384 15.58852604 21.18847656 25.41162109 C21.72730469 26.25337891 22.26613281 27.09513672 22.82128906 27.96240234 C25.02930061 31.91789731 25.52669548 35.97088447 26.18847656 40.41162109 C26.33671875 41.37841797 26.48496094 42.34521484 26.63769531 43.34130859 C27.52234215 50.6658039 26.81710085 56.52064586 24.18847656 63.41162109 C23.91648437 64.13607422 23.64449219 64.86052734 23.36425781 65.60693359 C15.35142716 82.77276053 -4.34449386 93.98687346 -20.81152344 101.41162109 C-25.33957624 102.92097203 -29.70842531 102.32530141 -34.43652344 102.09912109 C-35.87705078 102.04594727 -35.87705078 102.04594727 -37.34667969 101.99169922 C-46.67155768 101.56784113 -54.50296833 100.02671072 -62.81152344 95.72412109 C-63.50431396 95.36962891 -64.19710449 95.01513672 -64.91088867 94.64990234 C-78.63291416 87.44893313 -87.39202486 78.03882963 -92.81152344 63.41162109 C-96.69914954 50.57593939 -90.17538973 36.28901412 -84.39746094 24.99755859 C-80.66563413 18.12974287 -75.95567275 12.25998671 -70.81152344 6.41162109 C-70.34423828 5.8636084 -69.87695312 5.3155957 -69.39550781 4.75097656 C-60.99716321 -5.09646001 -52.5996338 -13.1258887 -39.13183594 -14.48291016 C-24.42463732 -15.15141918 -11.04205516 -9.68188825 0 0 Z " fill="#FF0E00" transform="translate(1967.8115234375,2461.58837890625)"/>
<path d="M0 0 C0.99 0 1.98 0 3 0 C3.02313372 11.69999714 3.04092036 23.39998887 3.05181217 35.1000042 C3.05703874 40.53233521 3.0641323 45.96465062 3.07543945 51.39697266 C3.08627634 56.63593831 3.09227855 61.87488891 3.09487724 67.1138649 C3.09673004 69.11621462 3.10034789 71.11856348 3.10573006 73.12090683 C3.11295109 75.91769972 3.11399049 78.71442982 3.11352539 81.51123047 C3.11712067 82.34560638 3.12071594 83.1799823 3.12442017 84.03964233 C3.11405216 89.77189568 3.11405216 89.77189568 2 92 C1.01 92 0.02 92 -1 92 C-1.02312202 80.15234827 -1.04091437 68.30470186 -1.05181217 56.4570322 C-1.05704131 50.95629138 -1.06413951 45.45556595 -1.07543945 39.95483398 C-1.08626725 34.6510344 -1.0922766 29.34724965 -1.09487724 24.04343987 C-1.09673169 22.01514388 -1.10035267 19.98684874 -1.10573006 17.95855904 C-1.11293906 15.12803486 -1.113991 12.29757282 -1.11352539 9.46704102 C-1.11712067 8.61971909 -1.12071594 7.77239716 -1.12442017 6.8993988 C-1.11405216 1.11405216 -1.11405216 1.11405216 0 0 Z " fill="#007402" transform="translate(1931,2326)"/>
<path d="M0 0 C0.99 0 1.98 0 3 0 C4.55795844 3.11591687 4.12160489 6.40863438 4.09375 9.828125 C4.09016479 10.68859436 4.08657959 11.54906372 4.08288574 12.43560791 C3.99909652 27.0531038 3.7537152 41.67019339 3.53643799 56.28619385 C3.4750523 60.43687427 3.41533973 64.58757876 3.35546875 68.73828125 C3.23857785 76.82554471 3.11989062 84.91278045 3 93 C1.515 93.495 1.515 93.495 0 94 C-0.93398375 91.19804876 -1.12643585 89.50840303 -1.12939453 86.61254883 C-1.13250641 85.71947021 -1.13561829 84.8263916 -1.13882446 83.90625 C-1.13684052 82.93300781 -1.13485657 81.95976562 -1.1328125 80.95703125 C-1.13413177 79.93633545 -1.13545105 78.91563965 -1.1368103 77.86401367 C-1.1387367 74.5134789 -1.13236556 71.16302638 -1.125 67.8125 C-1.12411377 66.67694672 -1.12322754 65.54139343 -1.12231445 64.37142944 C-1.10264726 42.90336715 -0.68806422 21.45625783 0 0 Z " fill="#007402" transform="translate(2491,2325)"/>
</svg>
